<?xml version="1.0" encoding="utf-8"?>
<!-- Generator: Adobe Illustrator 24.2.0, SVG Export Plug-In . SVG Version: 6.00 Build 0)  -->
<svg version="1.1" id="Layer_1" xmlns="http://www.w3.org/2000/svg" xmlns:xlink="http://www.w3.org/1999/xlink" x="0px" y="0px"
	 viewBox="0 0 186.7 179.1" style="enable-background:new 0 0 186.7 179.1;" xml:space="preserve">
<style type="text/css">
	.st0{fill:#305BC9;}
	.st1{fill:#FFFFFF;}
</style>
<g transform="translate(205.807 231.098) rotate(180)">
	<circle class="st0" cx="79.6" cy="125.6" r="73.6"/>
	<path class="st1" d="M87.5,131.4c-1.3,0-2.4,1.1-2.4,2.4c0,1.3,1,2.4,2.4,2.5s2.4-1,2.5-2.4c0,0,0-0.1,0-0.1c0-1.3-1-2.4-2.3-2.4
		C87.6,131.4,87.6,131.4,87.5,131.4z"/>
	<path class="st1" d="M98.1,131.4c-1.3,0-2.4,1.1-2.4,2.4s1.1,2.4,2.4,2.4c1.3,0,2.4-1.1,2.4-2.4c0,0,0,0,0,0
		C100.5,132.5,99.4,131.4,98.1,131.4C98.1,131.4,98.1,131.4,98.1,131.4z"/>
	<path class="st1" d="M108.7,131.4c-1.3,0-2.4,1.1-2.4,2.4s1.1,2.4,2.4,2.4c1.3,0,2.4-1.1,2.4-2.4c0,0,0,0,0,0
		C111.1,132.5,110,131.5,108.7,131.4z"/>
	<path class="st1" d="M119.1,131.4c-1.3,0-2.4,1.1-2.4,2.4s1.1,2.4,2.4,2.4c1.3,0,2.4-1.1,2.4-2.4c0,0,0,0,0,0c0-1.3-1-2.4-2.3-2.4
		C119.2,131.4,119.2,131.4,119.1,131.4z"/>
	<path class="st1" d="M129.7,131.4c-1.3,0-2.4,1.1-2.4,2.4s1.1,2.4,2.4,2.4s2.4-1.1,2.4-2.4c0,0,0,0,0,0
		C132.1,132.5,131,131.4,129.7,131.4C129.7,131.4,129.7,131.4,129.7,131.4z"/>
	<path class="st1" d="M140.3,131.4c-1.3,0-2.4,1.1-2.4,2.4s1.1,2.4,2.4,2.4s2.4-1.1,2.4-2.4c0,0,0,0,0,0
		C142.7,132.5,141.6,131.5,140.3,131.4z"/>
	<path class="st1" d="M150.7,131.4c-1.3,0-2.4,1.1-2.4,2.4s1.1,2.4,2.4,2.4s2.4-1.1,2.4-2.4c0,0,0,0,0,0
		C153.2,132.5,152.1,131.4,150.7,131.4C150.7,131.4,150.7,131.4,150.7,131.4z"/>
	<path class="st1" d="M161.3,131.4c-1.3,0-2.4,1.1-2.4,2.4s1.1,2.4,2.4,2.4c1.3,0,2.4-1.1,2.4-2.4c0,0,0,0,0,0
		C163.7,132.5,162.7,131.4,161.3,131.4C161.3,131.4,161.3,131.4,161.3,131.4z"/>
	<path class="st1" d="M171.9,131.4c-1.3,0-2.4,1.1-2.4,2.4c0,1.3,1.1,2.4,2.4,2.4c1.3,0,2.4-1.1,2.4-2.4
		C174.3,132.5,173.2,131.5,171.9,131.4z"/>
	<path class="st1" d="M182.3,131.4c-1.3,0-2.4,1.1-2.4,2.4s1.1,2.4,2.4,2.4c1.3,0,2.4-1.1,2.4-2.4c0,0,0,0,0,0
		C184.8,132.5,183.7,131.4,182.3,131.4C182.3,131.4,182.3,131.4,182.3,131.4z"/>
	<path class="st1" d="M192.9,131.4c-1.3,0-2.4,1.1-2.4,2.4s1.1,2.4,2.4,2.4c1.3,0,2.4-1.1,2.4-2.4c0,0,0,0,0,0
		C195.3,132.5,194.2,131.5,192.9,131.4z"/>
	<path class="st1" d="M203.4,136.4c1.3,0,2.4-1.1,2.4-2.4s-1.1-2.4-2.4-2.4c-1.3,0-2.4,1.1-2.4,2.4c0,0,0,0,0,0
		C201,135.3,202.1,136.4,203.4,136.4z"/>
	<path class="st1" d="M87.5,142c-1.3,0-2.4,1.1-2.4,2.4s1.1,2.4,2.4,2.4c1.3,0,2.4-1.1,2.4-2.4l0,0c0.1-1.3-0.9-2.3-2.1-2.4
		C87.7,142,87.6,142,87.5,142z"/>
	<path class="st1" d="M98.1,142c-1.3,0-2.4,1.1-2.4,2.4s1.1,2.4,2.4,2.4c1.3,0,2.4-1.1,2.4-2.4c0,0,0,0,0,0c0-1.3-1-2.4-2.3-2.4
		C98.2,142,98.2,142,98.1,142z"/>
	<path class="st1" d="M108.7,142c-1.3,0-2.4,1.1-2.4,2.4s1.1,2.4,2.4,2.4c1.3,0,2.4-1.1,2.4-2.4c0,0,0,0,0,0
		C111.1,143.1,110,142,108.7,142C108.7,142,108.7,142,108.7,142z"/>
	<path class="st1" d="M119.1,142c-1.3,0-2.4,1.1-2.4,2.4s1.1,2.4,2.4,2.4c1.3,0,2.4-1.1,2.4-2.4c0,0,0,0,0,0
		c0.1-1.3-0.9-2.3-2.1-2.4C119.3,142,119.2,142,119.1,142z"/>
	<path class="st1" d="M129.7,142c-1.3,0-2.4,1.1-2.4,2.4s1.1,2.4,2.4,2.4s2.4-1.1,2.4-2.4c0,0,0,0,0,0c0-1.3-1-2.4-2.3-2.4
		C129.8,142,129.8,142,129.7,142z"/>
	<path class="st1" d="M140.3,142c-1.3,0-2.4,1.1-2.4,2.4s1.1,2.4,2.4,2.4s2.4-1.1,2.4-2.4c0,0,0,0,0,0
		C142.7,143.1,141.6,142,140.3,142C140.3,142,140.3,142,140.3,142z"/>
	<path class="st1" d="M150.7,142c-1.3,0-2.4,1.1-2.4,2.4s1.1,2.4,2.4,2.4s2.4-1.1,2.4-2.4c0,0,0,0,0,0c0-1.3-1-2.4-2.3-2.4
		C150.8,142,150.8,142,150.7,142z"/>
	<path class="st1" d="M161.3,142c-1.3,0-2.4,1.1-2.4,2.4s1.1,2.4,2.4,2.4c1.3,0,2.4-1.1,2.4-2.4c0,0,0,0,0,0c0-1.3-1-2.4-2.3-2.4
		C161.4,142,161.4,142,161.3,142z"/>
	<path class="st1" d="M171.9,142c-1.3,0-2.4,1.1-2.4,2.4c0,1.3,1.1,2.4,2.4,2.4s2.4-1.1,2.4-2.4C174.3,143.1,173.2,142,171.9,142
		C171.9,142,171.9,142,171.9,142z"/>
	<path class="st1" d="M182.3,142c-1.3,0-2.4,1.1-2.4,2.4s1.1,2.4,2.4,2.4c1.3,0,2.4-1.1,2.4-2.4c0,0,0,0,0,0c0-1.3-1-2.4-2.3-2.4
		C182.5,142,182.4,142,182.3,142z"/>
	<path class="st1" d="M192.9,142c-1.3,0-2.4,1.1-2.4,2.4s1.1,2.4,2.4,2.4c1.3,0,2.4-1.1,2.4-2.4c0,0,0,0,0,0
		C195.3,143.1,194.3,142,192.9,142C192.9,142,192.9,142,192.9,142z"/>
	<path class="st1" d="M203.4,142c-1.3,0-2.4,1.1-2.4,2.4s1.1,2.4,2.4,2.4c1.3,0,2.4-1.1,2.4-2.4c0,0,0,0,0,0
		c0.1-1.3-0.9-2.3-2.1-2.4C203.6,142,203.5,142,203.4,142z"/>
	<path class="st1" d="M87.5,152.5c-1.3,0-2.4,1.1-2.4,2.4s1.1,2.4,2.4,2.4c1.3,0,2.4-1.1,2.4-2.4l0,0c0-1.3-1-2.4-2.3-2.4
		C87.6,152.5,87.6,152.5,87.5,152.5z"/>
	<path class="st1" d="M98.1,152.5c-1.3,0-2.4,1.1-2.4,2.4s1.1,2.4,2.4,2.4c1.3,0,2.4-1.1,2.4-2.4c0,0,0,0,0,0
		C100.5,153.5,99.4,152.5,98.1,152.5C98.1,152.5,98.1,152.5,98.1,152.5z"/>
	<path class="st1" d="M108.7,152.5c-1.3,0-2.4,1.1-2.4,2.4s1.1,2.4,2.4,2.4c1.3,0,2.4-1.1,2.4-2.4c0,0,0,0,0,0
		C111.1,153.6,110,152.5,108.7,152.5z"/>
	<path class="st1" d="M119.1,152.5c-1.3,0-2.4,1.1-2.4,2.4s1.1,2.4,2.4,2.4c1.3,0,2.4-1.1,2.4-2.4c0,0,0,0,0,0c0-1.3-1-2.4-2.3-2.4
		C119.2,152.5,119.2,152.5,119.1,152.5z"/>
	<path class="st1" d="M129.7,152.5c-1.3,0-2.4,1.1-2.4,2.4s1.1,2.4,2.4,2.4s2.4-1.1,2.4-2.4c0,0,0,0,0,0
		C132.1,153.5,131,152.5,129.7,152.5C129.7,152.5,129.7,152.5,129.7,152.5z"/>
	<path class="st1" d="M140.3,152.5c-1.3,0-2.4,1.1-2.4,2.4s1.1,2.4,2.4,2.4s2.4-1.1,2.4-2.4c0,0,0,0,0,0
		C142.7,153.6,141.6,152.5,140.3,152.5z"/>
	<path class="st1" d="M150.7,152.5c-1.3,0-2.4,1.1-2.4,2.4s1.1,2.4,2.4,2.4s2.4-1.1,2.4-2.4c0,0,0,0,0,0
		C153.2,153.5,152.1,152.5,150.7,152.5C150.7,152.5,150.7,152.5,150.7,152.5z"/>
	<path class="st1" d="M161.3,152.5c-1.3,0-2.4,1.1-2.4,2.4s1.1,2.4,2.4,2.4c1.3,0,2.4-1.1,2.4-2.4c0,0,0,0,0,0
		C163.7,153.5,162.7,152.5,161.3,152.5C161.3,152.5,161.3,152.5,161.3,152.5z"/>
	<path class="st1" d="M171.9,152.5c-1.3,0-2.4,1.1-2.4,2.4c0,1.3,1.1,2.4,2.4,2.4s2.4-1.1,2.4-2.4
		C174.3,153.6,173.2,152.5,171.9,152.5z"/>
	<path class="st1" d="M182.3,152.5c-1.3,0-2.4,1.1-2.4,2.4s1.1,2.4,2.4,2.4c1.3,0,2.4-1.1,2.4-2.4c0,0,0,0,0,0
		C184.8,153.5,183.7,152.5,182.3,152.5C182.3,152.5,182.3,152.5,182.3,152.5z"/>
	<path class="st1" d="M192.9,152.5c-1.3,0-2.4,1.1-2.4,2.4s1.1,2.4,2.4,2.4c1.3,0,2.4-1.1,2.4-2.4c0,0,0,0,0,0
		C195.3,153.6,194.2,152.5,192.9,152.5z"/>
	<path class="st1" d="M203.4,152.5c-1.3,0-2.4,1.1-2.4,2.4s1.1,2.4,2.4,2.4c1.3,0,2.4-1.1,2.4-2.4c0,0,0,0,0,0c0-1.3-1-2.4-2.3-2.4
		C203.5,152.5,203.4,152.5,203.4,152.5z"/>
	<path class="st1" d="M87.5,167.9c1.3,0,2.4-1.1,2.4-2.4c0-1.3-1.1-2.4-2.4-2.4s-2.4,1.1-2.4,2.4l0,0
		C85.1,166.8,86.2,167.9,87.5,167.9z"/>
	<path class="st1" d="M98.1,163c-1.3,0-2.4,1.1-2.4,2.4s1.1,2.4,2.4,2.4c1.3,0,2.4-1.1,2.4-2.4c0,0,0,0,0,0
		C100.5,164.1,99.4,163,98.1,163C98.1,163,98.1,163,98.1,163z"/>
	<path class="st1" d="M108.7,163c-1.3,0-2.4,1.1-2.4,2.4s1.1,2.4,2.4,2.4c1.3,0,2.4-1.1,2.4-2.4c0,0,0,0,0,0
		C111.1,164.1,110,163.1,108.7,163z"/>
	<path class="st1" d="M119.1,163c-1.3,0-2.4,1.1-2.4,2.4s1.1,2.4,2.4,2.4c1.3,0,2.4-1.1,2.4-2.4c0,0,0,0,0,0c0-1.3-1-2.4-2.3-2.4
		C119.2,163,119.2,163,119.1,163z"/>
	<path class="st1" d="M129.7,163c-1.3,0-2.4,1.1-2.4,2.4s1.1,2.4,2.4,2.4s2.4-1.1,2.4-2.4c0,0,0,0,0,0
		C132.1,164.1,131,163,129.7,163C129.7,163,129.7,163,129.7,163z"/>
	<path class="st1" d="M140.3,163c-1.3,0-2.4,1.1-2.4,2.4s1.1,2.4,2.4,2.4s2.4-1.1,2.4-2.4c0,0,0,0,0,0
		C142.7,164.1,141.6,163.1,140.3,163z"/>
	<path class="st1" d="M150.7,163c-1.3,0-2.4,1.1-2.4,2.4s1.1,2.4,2.4,2.4s2.4-1.1,2.4-2.4c0,0,0,0,0,0
		C153.2,164.1,152.1,163,150.7,163C150.7,163,150.7,163,150.7,163z"/>
	<path class="st1" d="M161.3,163c-1.3,0-2.4,1.1-2.4,2.4s1.1,2.4,2.4,2.4c1.3,0,2.4-1.1,2.4-2.4c0,0,0,0,0,0
		C163.7,164.1,162.7,163,161.3,163C161.3,163,161.3,163,161.3,163z"/>
	<path class="st1" d="M171.9,163c-1.3,0-2.4,1.1-2.4,2.4c0,1.3,1.1,2.4,2.4,2.4s2.4-1.1,2.4-2.4C174.3,164.1,173.2,163.1,171.9,163z
		"/>
	<path class="st1" d="M182.3,163c-1.3,0-2.4,1.1-2.4,2.4s1.1,2.4,2.4,2.4c1.3,0,2.4-1.1,2.4-2.4c0,0,0,0,0,0
		C184.8,164.1,183.7,163,182.3,163C182.3,163,182.3,163,182.3,163z"/>
	<path class="st1" d="M192.9,163c-1.3,0-2.4,1.1-2.4,2.4s1.1,2.4,2.4,2.4c1.3,0,2.4-1.1,2.4-2.4c0,0,0,0,0,0
		C195.3,164.1,194.2,163.1,192.9,163z"/>
	<path class="st1" d="M203.4,163c-1.3,0-2.4,1.1-2.4,2.4s1.1,2.4,2.4,2.4c1.3,0,2.4-1.1,2.4-2.4c0,0,0,0,0,0c0-1.3-1-2.4-2.3-2.4
		C203.5,163,203.4,163,203.4,163z"/>
	<path class="st1" d="M87.5,173.6c-1.3,0-2.4,1.1-2.4,2.4c0,1.3,1.1,2.4,2.4,2.4c1.3,0,2.4-1.1,2.4-2.4l0,0c0.1-1.3-0.9-2.3-2.1-2.4
		C87.7,173.6,87.6,173.6,87.5,173.6z"/>
	<path class="st1" d="M98.1,173.6c-1.3,0-2.4,1.1-2.4,2.4s1.1,2.4,2.4,2.4c1.3,0,2.4-1.1,2.4-2.4c0,0,0,0,0,0c0-1.3-1-2.4-2.3-2.4
		C98.2,173.6,98.2,173.6,98.1,173.6z"/>
	<path class="st1" d="M108.7,173.6c-1.3,0-2.4,1.1-2.4,2.4s1.1,2.4,2.4,2.4c1.3,0,2.4-1.1,2.4-2.4c0,0,0,0,0,0
		C111.1,174.7,110,173.6,108.7,173.6C108.7,173.6,108.7,173.6,108.7,173.6z"/>
	<path class="st1" d="M119.1,173.6c-1.3,0-2.4,1.1-2.4,2.4s1.1,2.4,2.4,2.4c1.3,0,2.4-1.1,2.4-2.4c0,0,0,0,0,0
		c0.1-1.3-0.9-2.3-2.1-2.4C119.3,173.6,119.2,173.6,119.1,173.6z"/>
	<path class="st1" d="M129.7,173.6c-1.3,0-2.4,1.1-2.4,2.4s1.1,2.4,2.4,2.4s2.4-1.1,2.4-2.4c0,0,0,0,0,0c0-1.3-1-2.4-2.3-2.4
		C129.8,173.6,129.8,173.6,129.7,173.6z"/>
	<path class="st1" d="M140.3,173.6c-1.3,0-2.4,1.1-2.4,2.4s1.1,2.4,2.4,2.4s2.4-1.1,2.4-2.4c0,0,0,0,0,0
		C142.7,174.7,141.6,173.6,140.3,173.6C140.3,173.6,140.3,173.6,140.3,173.6z"/>
	<path class="st1" d="M150.7,173.6c-1.3,0-2.4,1.1-2.4,2.4s1.1,2.4,2.4,2.4s2.4-1.1,2.4-2.4c0,0,0,0,0,0c0-1.3-1-2.4-2.3-2.4
		C150.8,173.6,150.8,173.6,150.7,173.6z"/>
	<path class="st1" d="M161.3,173.6c-1.3,0-2.4,1.1-2.4,2.4s1.1,2.4,2.4,2.4c1.3,0,2.4-1.1,2.4-2.4c0,0,0,0,0,0c0-1.3-1-2.4-2.3-2.4
		C161.4,173.6,161.4,173.6,161.3,173.6z"/>
	<path class="st1" d="M171.9,173.6c-1.3,0-2.4,1.1-2.4,2.4c0,1.3,1.1,2.4,2.4,2.4c1.3,0,2.4-1.1,2.4-2.4
		C174.3,174.7,173.2,173.6,171.9,173.6C171.9,173.6,171.9,173.6,171.9,173.6z"/>
	<path class="st1" d="M182.3,173.6c-1.3,0-2.4,1.1-2.4,2.4s1.1,2.4,2.4,2.4c1.3,0,2.4-1.1,2.4-2.4c0,0,0,0,0,0c0-1.3-1-2.4-2.3-2.4
		C182.5,173.6,182.4,173.6,182.3,173.6z"/>
	<path class="st1" d="M192.9,173.6c-1.3,0-2.4,1.1-2.4,2.4s1.1,2.4,2.4,2.4c1.3,0,2.4-1.1,2.4-2.4c0,0,0,0,0,0
		C195.3,174.7,194.3,173.6,192.9,173.6C192.9,173.6,192.9,173.6,192.9,173.6z"/>
	<path class="st1" d="M203.4,173.6c-1.3,0-2.4,1.1-2.4,2.4s1.1,2.4,2.4,2.4c1.3,0,2.4-1.1,2.4-2.4c0,0,0,0,0,0
		c0.1-1.3-0.9-2.3-2.1-2.4C203.6,173.6,203.5,173.6,203.4,173.6z"/>
	<path class="st1" d="M87.5,184.1c-1.4,0.1-2.4,1.2-2.4,2.6c0,1.3,1.1,2.4,2.4,2.4c1.3,0,2.4-1.1,2.4-2.4c0,0,0,0,0,0
		c0.1-1.3-0.9-2.4-2.2-2.5C87.7,184.1,87.6,184.1,87.5,184.1z"/>
	<path class="st1" d="M98.1,184.1c-1.3,0-2.4,1.1-2.4,2.4s1.1,2.4,2.4,2.4c1.3,0,2.4-1.1,2.4-2.4l0,0
		C100.5,185.2,99.4,184.1,98.1,184.1C98.1,184.1,98.1,184.1,98.1,184.1z"/>
	<path class="st1" d="M108.7,184.1c-1.3,0-2.4,1.1-2.4,2.4s1.1,2.4,2.4,2.4c1.3,0,2.4-1.1,2.4-2.4l0,0
		C111.1,185.2,110,184.1,108.7,184.1z"/>
	<path class="st1" d="M119.1,184.1c-1.3,0-2.4,1.1-2.4,2.4s1.1,2.4,2.4,2.4c1.3,0,2.4-1.1,2.4-2.4l0,0c0-1.3-1-2.4-2.3-2.4
		C119.2,184.1,119.2,184.1,119.1,184.1z"/>
	<path class="st1" d="M129.7,184.1c-1.3,0-2.4,1.1-2.4,2.4s1.1,2.4,2.4,2.4s2.4-1.1,2.4-2.4l0,0C132.1,185.2,131,184.1,129.7,184.1
		C129.7,184.1,129.7,184.1,129.7,184.1z"/>
	<path class="st1" d="M140.3,184.1c-1.3,0-2.4,1.1-2.4,2.4s1.1,2.4,2.4,2.4s2.4-1.1,2.4-2.4l0,0
		C142.7,185.2,141.6,184.1,140.3,184.1z"/>
	<path class="st1" d="M150.7,184.1c-1.3,0-2.4,1.1-2.4,2.4s1.1,2.4,2.4,2.4s2.4-1.1,2.4-2.4l0,0
		C153.2,185.2,152.1,184.1,150.7,184.1C150.7,184.1,150.7,184.1,150.7,184.1z"/>
	<path class="st1" d="M161.3,184.1c-1.3,0-2.4,1.1-2.4,2.4s1.1,2.4,2.4,2.4c1.3,0,2.4-1.1,2.4-2.4l0,0
		C163.7,185.2,162.7,184.1,161.3,184.1C161.3,184.1,161.3,184.1,161.3,184.1z"/>
	<path class="st1" d="M171.9,184.1c-1.3,0-2.4,1.1-2.4,2.4c0,1.3,1.1,2.4,2.4,2.4c1.3,0,2.4-1.1,2.4-2.4
		C174.3,185.2,173.2,184.1,171.9,184.1z"/>
	<path class="st1" d="M182.3,184.1c-1.3,0-2.4,1.1-2.4,2.4s1.1,2.4,2.4,2.4c1.3,0,2.4-1.1,2.4-2.4l0,0
		C184.8,185.2,183.7,184.1,182.3,184.1C182.3,184.1,182.3,184.1,182.3,184.1z"/>
	<path class="st1" d="M192.9,184.1c-1.3,0-2.4,1.1-2.4,2.4s1.1,2.4,2.4,2.4c1.3,0,2.4-1.1,2.4-2.4l0,0
		C195.3,185.2,194.2,184.1,192.9,184.1z"/>
	<path class="st1" d="M203.4,184.1c-1.3,0-2.4,1.1-2.4,2.4s1.1,2.4,2.4,2.4c1.3,0,2.4-1.1,2.4-2.4l0,0c0-1.3-1-2.4-2.3-2.4
		C203.5,184.1,203.4,184.1,203.4,184.1z"/>
	<path class="st1" d="M87.5,194.6c-1.3,0-2.4,1.1-2.4,2.4c0,0,0,0,0,0c0,1.3,1.1,2.4,2.4,2.4c1.3,0,2.4-1.1,2.4-2.5
		C89.9,195.7,88.8,194.7,87.5,194.6L87.5,194.6z"/>
	<path class="st1" d="M98.1,194.6c-1.3,0-2.4,1.1-2.4,2.4c0,0,0,0,0,0c0,1.3,1.1,2.4,2.4,2.4c1.3,0,2.4-1.1,2.4-2.5
		C100.4,195.7,99.4,194.7,98.1,194.6L98.1,194.6z"/>
	<path class="st1" d="M108.7,194.6c-1.3,0-2.4,1.1-2.4,2.4c0,0,0,0,0,0c0,1.3,1.1,2.4,2.4,2.4c1.3,0,2.4-1.1,2.4-2.4c0,0,0,0,0,0
		C111.1,195.8,110,194.7,108.7,194.6z"/>
	<path class="st1" d="M119.1,194.6c-1.3,0-2.4,1.1-2.4,2.4c0,0,0,0,0,0c0,1.3,1.1,2.4,2.4,2.4c1.3,0,2.4-1,2.5-2.4
		S120.6,194.7,119.1,194.6C119.2,194.6,119.2,194.6,119.1,194.6L119.1,194.6z"/>
	<path class="st1" d="M129.7,194.6c-1.3,0-2.4,1.1-2.4,2.4c0,0,0,0,0,0c0,1.3,1.1,2.4,2.4,2.4c1.3,0,2.4-1.1,2.4-2.5
		C132.1,195.7,131,194.7,129.7,194.6L129.7,194.6z"/>
	<path class="st1" d="M140.3,194.6c-1.3,0-2.4,1.1-2.4,2.4c0,0,0,0,0,0c0,1.3,1.1,2.4,2.4,2.4c1.3,0,2.4-1.1,2.4-2.4c0,0,0,0,0,0
		C142.7,195.8,141.6,194.7,140.3,194.6z"/>
	<path class="st1" d="M150.7,194.6c-1.3,0-2.4,1.1-2.4,2.4c0,0,0,0,0,0c0,1.3,1.1,2.4,2.4,2.4c1.3,0,2.4-1,2.5-2.4
		S152.2,194.7,150.7,194.6C150.8,194.6,150.8,194.6,150.7,194.6L150.7,194.6z"/>
	<path class="st1" d="M161.3,194.6c-1.3,0-2.4,1.1-2.4,2.4c0,0,0,0,0,0c0,1.3,1.1,2.4,2.4,2.4c1.3,0,2.4-1.1,2.4-2.5
		C163.7,195.7,162.6,194.7,161.3,194.6L161.3,194.6z"/>
	<path class="st1" d="M171.9,194.6c-1.3,0-2.4,1.1-2.4,2.4c0,0,0,0,0,0c0,1.3,1.1,2.4,2.4,2.4c1.3,0,2.4-1.1,2.4-2.4c0,0,0,0,0,0
		C174.3,195.8,173.2,194.7,171.9,194.6z"/>
	<path class="st1" d="M182.3,194.6c-1.3,0-2.4,1.1-2.4,2.4c0,1.3,1.1,2.4,2.4,2.4c1.3,0,2.4-1,2.5-2.4s-1-2.4-2.4-2.5
		C182.4,194.6,182.4,194.6,182.3,194.6L182.3,194.6z"/>
	<path class="st1" d="M192.9,194.6c-1.3,0-2.4,1.1-2.4,2.4c0,0,0,0,0,0c0,1.3,1.1,2.4,2.4,2.4c1.3,0,2.4-1.1,2.4-2.4c0,0,0,0,0,0
		C195.3,195.7,194.2,194.7,192.9,194.6z"/>
	<path class="st1" d="M203.4,194.6c-1.3,0-2.4,1.1-2.4,2.4c0,0,0,0,0,0c0,1.3,1.1,2.4,2.4,2.4c1.3,0,2.4-1.1,2.4-2.5
		C205.7,195.7,204.7,194.7,203.4,194.6L203.4,194.6z"/>
	<path class="st1" d="M87.5,205.2c-1.3,0-2.4,1.1-2.4,2.4s1.1,2.4,2.4,2.4c1.3,0,2.4-1.1,2.4-2.4l0,0c0.1-1.3-0.9-2.3-2.1-2.4
		C87.7,205.2,87.6,205.2,87.5,205.2z"/>
	<path class="st1" d="M98.1,205.2c-1.3,0-2.4,1.1-2.4,2.4s1.1,2.4,2.4,2.4c1.3,0,2.4-1.1,2.4-2.4l0,0c0-1.3-1-2.4-2.3-2.4
		C98.2,205.2,98.2,205.2,98.1,205.2z"/>
	<path class="st1" d="M108.7,205.2c-1.3,0-2.4,1.1-2.4,2.4s1.1,2.4,2.4,2.4c1.3,0,2.4-1.1,2.4-2.4l0,0
		C111.1,206.3,110,205.2,108.7,205.2C108.7,205.2,108.7,205.2,108.7,205.2z"/>
	<path class="st1" d="M119.1,205.2c-1.3,0-2.4,1.1-2.4,2.4s1.1,2.4,2.4,2.4c1.3,0,2.4-1.1,2.4-2.4l0,0c0.1-1.3-0.9-2.3-2.1-2.4
		C119.3,205.2,119.2,205.2,119.1,205.2z"/>
	<path class="st1" d="M129.7,205.2c-1.3,0-2.4,1.1-2.4,2.4s1.1,2.4,2.4,2.4s2.4-1.1,2.4-2.4l0,0c0-1.3-1-2.4-2.3-2.4
		C129.8,205.2,129.8,205.2,129.7,205.2z"/>
	<path class="st1" d="M140.3,205.2c-1.3,0-2.4,1.1-2.4,2.4s1.1,2.4,2.4,2.4s2.4-1.1,2.4-2.4l0,0
		C142.7,206.3,141.6,205.2,140.3,205.2C140.3,205.2,140.3,205.2,140.3,205.2z"/>
	<path class="st1" d="M150.7,205.2c-1.3,0-2.4,1.1-2.4,2.4s1.1,2.4,2.4,2.4s2.4-1.1,2.4-2.4l0,0c0-1.3-1-2.4-2.3-2.4
		C150.8,205.2,150.8,205.2,150.7,205.2z"/>
	<path class="st1" d="M161.3,205.2c-1.3,0-2.4,1.1-2.4,2.4s1.1,2.4,2.4,2.4c1.3,0,2.4-1.1,2.4-2.4l0,0c0-1.3-1-2.4-2.3-2.4
		C161.4,205.2,161.4,205.2,161.3,205.2z"/>
	<path class="st1" d="M171.9,205.2c-1.3,0-2.4,1.1-2.4,2.4c0,1.3,1.1,2.4,2.4,2.4c1.3,0,2.4-1.1,2.4-2.4
		C174.3,206.3,173.2,205.2,171.9,205.2C171.9,205.2,171.9,205.2,171.9,205.2z"/>
	<path class="st1" d="M182.3,205.2c-1.3,0-2.4,1.1-2.4,2.4s1.1,2.4,2.4,2.4c1.3,0,2.4-1.1,2.4-2.4l0,0c0-1.3-1-2.4-2.3-2.4
		C182.5,205.2,182.4,205.2,182.3,205.2z"/>
	<path class="st1" d="M192.9,205.2c-1.3,0-2.4,1.1-2.4,2.4s1.1,2.4,2.4,2.4c1.3,0,2.4-1.1,2.4-2.4l0,0
		C195.3,206.3,194.3,205.2,192.9,205.2C192.9,205.2,192.9,205.2,192.9,205.2z"/>
	<path class="st1" d="M203.4,205.2c-1.3,0-2.4,1.1-2.4,2.4s1.1,2.4,2.4,2.4c1.3,0,2.4-1.1,2.4-2.4l0,0c0.1-1.3-0.9-2.3-2.1-2.4
		C203.6,205.2,203.5,205.2,203.4,205.2z"/>
	<path class="st1" d="M87.5,215.7c-1.3,0-2.4,1.1-2.4,2.4s1.1,2.4,2.4,2.4c1.3,0,2.4-1.1,2.4-2.4l0,0c0-1.3-1-2.4-2.3-2.4
		C87.6,215.7,87.6,215.7,87.5,215.7z"/>
	<path class="st1" d="M98.1,215.7c-1.3,0-2.4,1.1-2.4,2.4s1.1,2.4,2.4,2.4c1.3,0,2.4-1.1,2.4-2.4l0,0
		C100.5,216.8,99.4,215.7,98.1,215.7C98.1,215.7,98.1,215.7,98.1,215.7z"/>
	<path class="st1" d="M108.7,215.7c-1.3,0-2.4,1.1-2.4,2.4s1.1,2.4,2.4,2.4c1.3,0,2.4-1.1,2.4-2.4l0,0
		C111.1,216.8,110,215.7,108.7,215.7z"/>
	<path class="st1" d="M119.1,215.7c-1.3,0-2.4,1.1-2.4,2.4s1.1,2.4,2.4,2.4c1.3,0,2.4-1.1,2.4-2.4l0,0c0-1.3-1-2.4-2.3-2.4
		C119.2,215.7,119.2,215.7,119.1,215.7z"/>
	<path class="st1" d="M129.7,215.7c-1.3,0-2.4,1.1-2.4,2.4s1.1,2.4,2.4,2.4s2.4-1.1,2.4-2.4l0,0C132.1,216.8,131,215.7,129.7,215.7
		C129.7,215.7,129.7,215.7,129.7,215.7z"/>
	<path class="st1" d="M140.3,215.7c-1.3,0-2.4,1.1-2.4,2.4s1.1,2.4,2.4,2.4s2.4-1.1,2.4-2.4l0,0
		C142.7,216.8,141.6,215.7,140.3,215.7z"/>
	<path class="st1" d="M150.7,215.7c-1.3,0-2.4,1.1-2.4,2.4s1.1,2.4,2.4,2.4s2.4-1.1,2.4-2.4l0,0
		C153.2,216.8,152.1,215.7,150.7,215.7C150.7,215.7,150.7,215.7,150.7,215.7z"/>
	<path class="st1" d="M161.3,215.7c-1.3,0-2.4,1.1-2.4,2.4s1.1,2.4,2.4,2.4c1.3,0,2.4-1.1,2.4-2.4l0,0
		C163.7,216.8,162.7,215.7,161.3,215.7C161.3,215.7,161.3,215.7,161.3,215.7z"/>
	<path class="st1" d="M171.9,215.7c-1.3,0-2.4,1.1-2.4,2.4c0,1.3,1.1,2.4,2.4,2.4c1.3,0,2.4-1.1,2.4-2.4
		C174.3,216.8,173.2,215.7,171.9,215.7z"/>
	<path class="st1" d="M182.3,215.7c-1.3,0-2.4,1.1-2.4,2.4s1.1,2.4,2.4,2.4c1.3,0,2.4-1.1,2.4-2.4l0,0
		C184.8,216.8,183.7,215.7,182.3,215.7C182.3,215.7,182.3,215.7,182.3,215.7z"/>
	<path class="st1" d="M192.9,215.7c-1.3,0-2.4,1.1-2.4,2.4s1.1,2.4,2.4,2.4c1.3,0,2.4-1.1,2.4-2.4l0,0
		C195.3,216.8,194.2,215.7,192.9,215.7z"/>
	<path class="st1" d="M203.4,215.7c-1.3,0-2.4,1.1-2.4,2.4s1.1,2.4,2.4,2.4c1.3,0,2.4-1.1,2.4-2.4l0,0c0-1.3-1-2.4-2.3-2.4
		C203.5,215.7,203.4,215.7,203.4,215.7z"/>
	<path class="st1" d="M87.5,226.3c-1.3,0-2.4,1.1-2.4,2.4s1.1,2.4,2.4,2.4c1.3,0,2.4-1.1,2.4-2.4l0,0c0-1.3-1-2.4-2.3-2.4
		C87.6,226.3,87.6,226.3,87.5,226.3z"/>
	<path class="st1" d="M98.1,226.3c-1.3,0-2.4,1.1-2.4,2.4s1.1,2.4,2.4,2.4c1.3,0,2.4-1.1,2.4-2.4l0,0
		C100.5,227.3,99.4,226.3,98.1,226.3C98.1,226.3,98.1,226.3,98.1,226.3z"/>
	<path class="st1" d="M108.7,226.3c-1.3,0-2.4,1.1-2.4,2.4s1.1,2.4,2.4,2.4c1.3,0,2.4-1.1,2.4-2.4l0,0
		C111.1,227.4,110,226.3,108.7,226.3z"/>
	<path class="st1" d="M119.1,226.3c-1.3,0-2.4,1.1-2.4,2.4s1.1,2.4,2.4,2.4c1.3,0,2.4-1.1,2.4-2.4l0,0c0-1.3-1-2.4-2.3-2.4
		C119.2,226.3,119.2,226.3,119.1,226.3z"/>
	<path class="st1" d="M129.7,226.3c-1.3,0-2.4,1.1-2.4,2.4s1.1,2.4,2.4,2.4s2.4-1.1,2.4-2.4l0,0C132.1,227.3,131,226.3,129.7,226.3
		C129.7,226.3,129.7,226.3,129.7,226.3z"/>
	<path class="st1" d="M140.3,226.3c-1.3,0-2.4,1.1-2.4,2.4s1.1,2.4,2.4,2.4s2.4-1.1,2.4-2.4l0,0
		C142.7,227.4,141.6,226.3,140.3,226.3z"/>
	<path class="st1" d="M150.7,226.3c-1.3,0-2.4,1.1-2.4,2.4s1.1,2.4,2.4,2.4s2.4-1.1,2.4-2.4l0,0
		C153.2,227.3,152.1,226.3,150.7,226.3C150.7,226.3,150.7,226.3,150.7,226.3z"/>
	<path class="st1" d="M161.3,226.3c-1.3,0-2.4,1.1-2.4,2.4s1.1,2.4,2.4,2.4c1.3,0,2.4-1.1,2.4-2.4l0,0
		C163.7,227.3,162.7,226.3,161.3,226.3C161.3,226.3,161.3,226.3,161.3,226.3z"/>
	<path class="st1" d="M171.9,226.3c-1.3,0-2.4,1.1-2.4,2.4c0,1.3,1.1,2.4,2.4,2.4c1.3,0,2.4-1.1,2.4-2.4
		C174.3,227.4,173.2,226.3,171.9,226.3z"/>
	<path class="st1" d="M182.3,226.3c-1.3,0-2.4,1.1-2.4,2.4s1.1,2.4,2.4,2.4c1.3,0,2.4-1.1,2.4-2.4l0,0
		C184.8,227.3,183.7,226.3,182.3,226.3C182.3,226.3,182.3,226.3,182.3,226.3z"/>
	<path class="st1" d="M192.9,226.3c-1.3,0-2.4,1.1-2.4,2.4s1.1,2.4,2.4,2.4c1.3,0,2.4-1.1,2.4-2.4l0,0
		C195.3,227.4,194.2,226.3,192.9,226.3z"/>
	<path class="st1" d="M203.4,226.3c-1.3,0-2.4,1.1-2.4,2.4s1.1,2.4,2.4,2.4c1.3,0,2.4-1.1,2.4-2.4l0,0c0-1.3-1-2.4-2.3-2.4
		C203.5,226.3,203.4,226.3,203.4,226.3z"/>
	<path class="st1" d="M87.5,131.4c-1.3,0-2.4,1.1-2.4,2.4c0,1.3,1,2.4,2.4,2.5s2.4-1,2.5-2.4c0,0,0-0.1,0-0.1c0-1.3-1-2.4-2.3-2.4
		C87.6,131.4,87.6,131.4,87.5,131.4z"/>
	<path class="st1" d="M98.1,131.4c-1.3,0-2.4,1.1-2.4,2.4s1.1,2.4,2.4,2.4c1.3,0,2.4-1.1,2.4-2.4c0,0,0,0,0,0
		C100.5,132.5,99.4,131.4,98.1,131.4C98.1,131.4,98.1,131.4,98.1,131.4z"/>
	<path class="st1" d="M108.7,131.4c-1.3,0-2.4,1.1-2.4,2.4s1.1,2.4,2.4,2.4c1.3,0,2.4-1.1,2.4-2.4c0,0,0,0,0,0
		C111.1,132.5,110,131.5,108.7,131.4z"/>
	<path class="st1" d="M119.1,131.4c-1.3,0-2.4,1.1-2.4,2.4s1.1,2.4,2.4,2.4c1.3,0,2.4-1.1,2.4-2.4c0,0,0,0,0,0c0-1.3-1-2.4-2.3-2.4
		C119.2,131.4,119.2,131.4,119.1,131.4z"/>
	<path class="st1" d="M129.7,131.4c-1.3,0-2.4,1.1-2.4,2.4s1.1,2.4,2.4,2.4s2.4-1.1,2.4-2.4c0,0,0,0,0,0
		C132.1,132.5,131,131.4,129.7,131.4C129.7,131.4,129.7,131.4,129.7,131.4z"/>
	<path class="st1" d="M140.3,131.4c-1.3,0-2.4,1.1-2.4,2.4s1.1,2.4,2.4,2.4s2.4-1.1,2.4-2.4c0,0,0,0,0,0
		C142.7,132.5,141.6,131.5,140.3,131.4z"/>
	<path class="st1" d="M150.7,131.4c-1.3,0-2.4,1.1-2.4,2.4s1.1,2.4,2.4,2.4s2.4-1.1,2.4-2.4c0,0,0,0,0,0
		C153.2,132.5,152.1,131.4,150.7,131.4C150.7,131.4,150.7,131.4,150.7,131.4z"/>
	<path class="st1" d="M161.3,131.4c-1.3,0-2.4,1.1-2.4,2.4s1.1,2.4,2.4,2.4c1.3,0,2.4-1.1,2.4-2.4c0,0,0,0,0,0
		C163.7,132.5,162.7,131.4,161.3,131.4C161.3,131.4,161.3,131.4,161.3,131.4z"/>
	<path class="st1" d="M171.9,131.4c-1.3,0-2.4,1.1-2.4,2.4c0,1.3,1.1,2.4,2.4,2.4c1.3,0,2.4-1.1,2.4-2.4
		C174.3,132.5,173.2,131.5,171.9,131.4z"/>
	<path class="st1" d="M182.3,131.4c-1.3,0-2.4,1.1-2.4,2.4s1.1,2.4,2.4,2.4c1.3,0,2.4-1.1,2.4-2.4c0,0,0,0,0,0
		C184.8,132.5,183.7,131.4,182.3,131.4C182.3,131.4,182.3,131.4,182.3,131.4z"/>
	<path class="st1" d="M192.9,131.4c-1.3,0-2.4,1.1-2.4,2.4s1.1,2.4,2.4,2.4c1.3,0,2.4-1.1,2.4-2.4c0,0,0,0,0,0
		C195.3,132.5,194.2,131.5,192.9,131.4z"/>
	<path class="st1" d="M203.4,136.4c1.3,0,2.4-1.1,2.4-2.4s-1.1-2.4-2.4-2.4c-1.3,0-2.4,1.1-2.4,2.4c0,0,0,0,0,0
		C201,135.3,202.1,136.4,203.4,136.4z"/>
	<path class="st1" d="M87.5,142c-1.3,0-2.4,1.1-2.4,2.4s1.1,2.4,2.4,2.4c1.3,0,2.4-1.1,2.4-2.4l0,0c0.1-1.3-0.9-2.3-2.1-2.4
		C87.7,142,87.6,142,87.5,142z"/>
	<path class="st1" d="M98.1,142c-1.3,0-2.4,1.1-2.4,2.4s1.1,2.4,2.4,2.4c1.3,0,2.4-1.1,2.4-2.4c0,0,0,0,0,0c0-1.3-1-2.4-2.3-2.4
		C98.2,142,98.2,142,98.1,142z"/>
	<path class="st1" d="M108.7,142c-1.3,0-2.4,1.1-2.4,2.4s1.1,2.4,2.4,2.4c1.3,0,2.4-1.1,2.4-2.4c0,0,0,0,0,0
		C111.1,143.1,110,142,108.7,142C108.7,142,108.7,142,108.7,142z"/>
	<path class="st1" d="M119.1,142c-1.3,0-2.4,1.1-2.4,2.4s1.1,2.4,2.4,2.4c1.3,0,2.4-1.1,2.4-2.4c0,0,0,0,0,0
		c0.1-1.3-0.9-2.3-2.1-2.4C119.3,142,119.2,142,119.1,142z"/>
	<path class="st1" d="M129.7,142c-1.3,0-2.4,1.1-2.4,2.4s1.1,2.4,2.4,2.4s2.4-1.1,2.4-2.4c0,0,0,0,0,0c0-1.3-1-2.4-2.3-2.4
		C129.8,142,129.8,142,129.7,142z"/>
	<path class="st1" d="M140.3,142c-1.3,0-2.4,1.1-2.4,2.4s1.1,2.4,2.4,2.4s2.4-1.1,2.4-2.4c0,0,0,0,0,0
		C142.7,143.1,141.6,142,140.3,142C140.3,142,140.3,142,140.3,142z"/>
	<path class="st1" d="M150.7,142c-1.3,0-2.4,1.1-2.4,2.4s1.1,2.4,2.4,2.4s2.4-1.1,2.4-2.4c0,0,0,0,0,0c0-1.3-1-2.4-2.3-2.4
		C150.8,142,150.8,142,150.7,142z"/>
	<path class="st1" d="M161.3,142c-1.3,0-2.4,1.1-2.4,2.4s1.1,2.4,2.4,2.4c1.3,0,2.4-1.1,2.4-2.4c0,0,0,0,0,0c0-1.3-1-2.4-2.3-2.4
		C161.4,142,161.4,142,161.3,142z"/>
	<path class="st1" d="M171.9,142c-1.3,0-2.4,1.1-2.4,2.4c0,1.3,1.1,2.4,2.4,2.4s2.4-1.1,2.4-2.4C174.3,143.1,173.2,142,171.9,142
		C171.9,142,171.9,142,171.9,142z"/>
	<path class="st1" d="M182.3,142c-1.3,0-2.4,1.1-2.4,2.4s1.1,2.4,2.4,2.4c1.3,0,2.4-1.1,2.4-2.4c0,0,0,0,0,0c0-1.3-1-2.4-2.3-2.4
		C182.5,142,182.4,142,182.3,142z"/>
	<path class="st1" d="M192.9,142c-1.3,0-2.4,1.1-2.4,2.4s1.1,2.4,2.4,2.4c1.3,0,2.4-1.1,2.4-2.4c0,0,0,0,0,0
		C195.3,143.1,194.3,142,192.9,142C192.9,142,192.9,142,192.9,142z"/>
	<path class="st1" d="M203.4,142c-1.3,0-2.4,1.1-2.4,2.4s1.1,2.4,2.4,2.4c1.3,0,2.4-1.1,2.4-2.4c0,0,0,0,0,0
		c0.1-1.3-0.9-2.3-2.1-2.4C203.6,142,203.5,142,203.4,142z"/>
	<path class="st1" d="M87.5,152.5c-1.3,0-2.4,1.1-2.4,2.4s1.1,2.4,2.4,2.4c1.3,0,2.4-1.1,2.4-2.4l0,0c0-1.3-1-2.4-2.3-2.4
		C87.6,152.5,87.6,152.5,87.5,152.5z"/>
	<path class="st1" d="M98.1,152.5c-1.3,0-2.4,1.1-2.4,2.4s1.1,2.4,2.4,2.4c1.3,0,2.4-1.1,2.4-2.4c0,0,0,0,0,0
		C100.5,153.5,99.4,152.5,98.1,152.5C98.1,152.5,98.1,152.5,98.1,152.5z"/>
	<path class="st1" d="M108.7,152.5c-1.3,0-2.4,1.1-2.4,2.4s1.1,2.4,2.4,2.4c1.3,0,2.4-1.1,2.4-2.4c0,0,0,0,0,0
		C111.1,153.6,110,152.5,108.7,152.5z"/>
	<path class="st1" d="M119.1,152.5c-1.3,0-2.4,1.1-2.4,2.4s1.1,2.4,2.4,2.4c1.3,0,2.4-1.1,2.4-2.4c0,0,0,0,0,0c0-1.3-1-2.4-2.3-2.4
		C119.2,152.5,119.2,152.5,119.1,152.5z"/>
	<path class="st1" d="M129.7,152.5c-1.3,0-2.4,1.1-2.4,2.4s1.1,2.4,2.4,2.4s2.4-1.1,2.4-2.4c0,0,0,0,0,0
		C132.1,153.5,131,152.5,129.7,152.5C129.7,152.5,129.7,152.5,129.7,152.5z"/>
	<path class="st1" d="M140.3,152.5c-1.3,0-2.4,1.1-2.4,2.4s1.1,2.4,2.4,2.4s2.4-1.1,2.4-2.4c0,0,0,0,0,0
		C142.7,153.6,141.6,152.5,140.3,152.5z"/>
	<path class="st1" d="M150.7,152.5c-1.3,0-2.4,1.1-2.4,2.4s1.1,2.4,2.4,2.4s2.4-1.1,2.4-2.4c0,0,0,0,0,0
		C153.2,153.5,152.1,152.5,150.7,152.5C150.7,152.5,150.7,152.5,150.7,152.5z"/>
	<path class="st1" d="M161.3,152.5c-1.3,0-2.4,1.1-2.4,2.4s1.1,2.4,2.4,2.4c1.3,0,2.4-1.1,2.4-2.4c0,0,0,0,0,0
		C163.7,153.5,162.7,152.5,161.3,152.5C161.3,152.5,161.3,152.5,161.3,152.5z"/>
	<path class="st1" d="M171.9,152.5c-1.3,0-2.4,1.1-2.4,2.4c0,1.3,1.1,2.4,2.4,2.4s2.4-1.1,2.4-2.4
		C174.3,153.6,173.2,152.5,171.9,152.5z"/>
	<path class="st1" d="M182.3,152.5c-1.3,0-2.4,1.1-2.4,2.4s1.1,2.4,2.4,2.4c1.3,0,2.4-1.1,2.4-2.4c0,0,0,0,0,0
		C184.8,153.5,183.7,152.5,182.3,152.5C182.4,152.5,182.3,152.5,182.3,152.5z"/>
	<path class="st1" d="M192.9,152.5c-1.3,0-2.4,1.1-2.4,2.4s1.1,2.4,2.4,2.4c1.3,0,2.4-1.1,2.4-2.4c0,0,0,0,0,0
		C195.3,153.6,194.2,152.5,192.9,152.5z"/>
	<path class="st1" d="M203.4,152.5c-1.3,0-2.4,1.1-2.4,2.4s1.1,2.4,2.4,2.4c1.3,0,2.4-1.1,2.4-2.4c0,0,0,0,0,0c0-1.3-1-2.4-2.3-2.4
		C203.5,152.5,203.4,152.5,203.4,152.5z"/>
	<path class="st1" d="M87.6,167.9c1.3,0,2.4-1.1,2.4-2.5c0-1.3-1.1-2.4-2.5-2.4c-1.3,0-2.4,1.1-2.4,2.5c0,0,0,0,0,0
		C85.1,166.9,86.2,167.9,87.6,167.9C87.6,167.9,87.6,167.9,87.6,167.9z"/>
	<path class="st1" d="M98.1,163c-1.3,0-2.4,1.1-2.4,2.4s1.1,2.4,2.4,2.4c1.3,0,2.4-1.1,2.4-2.4c0,0,0,0,0,0
		C100.5,164.1,99.4,163,98.1,163C98.1,163,98.1,163,98.1,163z"/>
	<path class="st1" d="M108.7,163c-1.3,0-2.4,1.1-2.4,2.4s1.1,2.4,2.4,2.4c1.3,0,2.4-1.1,2.4-2.4c0,0,0,0,0,0
		C111.1,164.1,110,163.1,108.7,163z"/>
	<path class="st1" d="M119.1,163c-1.3,0-2.4,1.1-2.4,2.4s1.1,2.4,2.4,2.4c1.3,0,2.4-1.1,2.4-2.4c0,0,0,0,0,0c0-1.3-1-2.4-2.3-2.4
		C119.2,163,119.2,163,119.1,163z"/>
	<path class="st1" d="M129.7,163c-1.3,0-2.4,1.1-2.4,2.4s1.1,2.4,2.4,2.4s2.4-1.1,2.4-2.4c0,0,0,0,0,0
		C132.1,164.1,131,163,129.7,163C129.7,163,129.7,163,129.7,163z"/>
	<path class="st1" d="M140.3,163c-1.3,0-2.4,1.1-2.4,2.4s1.1,2.4,2.4,2.4s2.4-1.1,2.4-2.4c0,0,0,0,0,0
		C142.7,164.1,141.6,163.1,140.3,163z"/>
	<path class="st1" d="M150.7,163c-1.3,0-2.4,1.1-2.4,2.4s1.1,2.4,2.4,2.4s2.4-1.1,2.4-2.4c0,0,0,0,0,0
		C153.2,164.1,152.1,163,150.7,163C150.7,163,150.7,163,150.7,163z"/>
	<path class="st1" d="M161.3,163c-1.3,0-2.4,1.1-2.4,2.4s1.1,2.4,2.4,2.4c1.3,0,2.4-1.1,2.4-2.4c0,0,0,0,0,0
		C163.7,164.1,162.7,163,161.3,163C161.3,163,161.3,163,161.3,163z"/>
	<path class="st1" d="M171.9,163c-1.3,0-2.4,1.1-2.4,2.4c0,1.3,1.1,2.4,2.4,2.4s2.4-1.1,2.4-2.4C174.3,164.1,173.2,163.1,171.9,163z
		"/>
	<path class="st1" d="M182.3,163c-1.3,0-2.4,1.1-2.4,2.4s1.1,2.4,2.4,2.4c1.3,0,2.4-1.1,2.4-2.4c0,0,0,0,0,0
		C184.8,164.1,183.7,163,182.3,163C182.4,163,182.3,163,182.3,163z"/>
	<path class="st1" d="M192.9,163c-1.3,0-2.4,1.1-2.4,2.4s1.1,2.4,2.4,2.4c1.3,0,2.4-1.1,2.4-2.4c0,0,0,0,0,0
		C195.3,164.1,194.2,163.1,192.9,163z"/>
	<path class="st1" d="M203.4,163c-1.3,0-2.4,1.1-2.4,2.4s1.1,2.4,2.4,2.4c1.3,0,2.4-1.1,2.4-2.4c0,0,0,0,0,0c0-1.3-1-2.4-2.3-2.4
		C203.5,163,203.4,163,203.4,163z"/>
	<path class="st1" d="M87.5,173.6c-1.3,0-2.4,1.1-2.4,2.4c0,1.3,1.1,2.4,2.4,2.4c1.3,0,2.4-1.1,2.4-2.4l0,0c0.1-1.3-0.9-2.3-2.1-2.4
		C87.7,173.6,87.6,173.6,87.5,173.6z"/>
	<path class="st1" d="M98.1,173.6c-1.3,0-2.4,1.1-2.4,2.4s1.1,2.4,2.4,2.4c1.3,0,2.4-1.1,2.4-2.4c0,0,0,0,0,0c0-1.3-1-2.4-2.3-2.4
		C98.2,173.6,98.2,173.6,98.1,173.6z"/>
	<path class="st1" d="M108.7,173.6c-1.3,0-2.4,1.1-2.4,2.4s1.1,2.4,2.4,2.4c1.3,0,2.4-1.1,2.4-2.4c0,0,0,0,0,0
		C111.1,174.7,110,173.6,108.7,173.6C108.7,173.6,108.7,173.6,108.7,173.6z"/>
	<path class="st1" d="M119.1,173.6c-1.3,0-2.4,1.1-2.4,2.4s1.1,2.4,2.4,2.4c1.3,0,2.4-1.1,2.4-2.4c0,0,0,0,0,0
		c0.1-1.3-0.9-2.3-2.1-2.4C119.3,173.6,119.2,173.6,119.1,173.6z"/>
	<path class="st1" d="M129.7,173.6c-1.3,0-2.4,1.1-2.4,2.4s1.1,2.4,2.4,2.4s2.4-1.1,2.4-2.4c0,0,0,0,0,0c0-1.3-1-2.4-2.3-2.4
		C129.8,173.6,129.8,173.6,129.7,173.6z"/>
	<path class="st1" d="M140.3,173.6c-1.3,0-2.4,1.1-2.4,2.4s1.1,2.4,2.4,2.4s2.4-1.1,2.4-2.4c0,0,0,0,0,0
		C142.7,174.7,141.6,173.6,140.3,173.6C140.3,173.6,140.3,173.6,140.3,173.6z"/>
	<path class="st1" d="M150.7,173.6c-1.3,0-2.4,1.1-2.4,2.4s1.1,2.4,2.4,2.4s2.4-1.1,2.4-2.4c0,0,0,0,0,0c0-1.3-1-2.4-2.3-2.4
		C150.8,173.6,150.8,173.6,150.7,173.6z"/>
	<path class="st1" d="M161.3,173.6c-1.3,0-2.4,1.1-2.4,2.4s1.1,2.4,2.4,2.4c1.3,0,2.4-1.1,2.4-2.4c0,0,0,0,0,0c0-1.3-1-2.4-2.3-2.4
		C161.4,173.6,161.4,173.6,161.3,173.6z"/>
	<path class="st1" d="M171.9,173.6c-1.3,0-2.4,1.1-2.4,2.4c0,1.3,1.1,2.4,2.4,2.4c1.3,0,2.4-1.1,2.4-2.4
		C174.3,174.7,173.2,173.6,171.9,173.6C171.9,173.6,171.9,173.6,171.9,173.6z"/>
	<path class="st1" d="M182.3,173.6c-1.3,0-2.4,1.1-2.4,2.4s1.1,2.4,2.4,2.4c1.3,0,2.4-1.1,2.4-2.4c0,0,0,0,0,0c0-1.3-1-2.4-2.3-2.4
		C182.5,173.6,182.4,173.6,182.3,173.6z"/>
	<path class="st1" d="M192.9,173.6c-1.3,0-2.4,1.1-2.4,2.4s1.1,2.4,2.4,2.4c1.3,0,2.4-1.1,2.4-2.4c0,0,0,0,0,0
		C195.3,174.7,194.3,173.6,192.9,173.6C192.9,173.6,192.9,173.6,192.9,173.6z"/>
	<path class="st1" d="M203.4,173.6c-1.3,0-2.4,1.1-2.4,2.4s1.1,2.4,2.4,2.4c1.3,0,2.4-1.1,2.4-2.4c0,0,0,0,0,0
		c0.1-1.3-0.9-2.3-2.1-2.4C203.6,173.6,203.5,173.6,203.4,173.6z"/>
	<path class="st1" d="M87.5,184.1c-1.4,0.1-2.4,1.2-2.4,2.6c0,1.3,1.1,2.4,2.4,2.4c1.3,0,2.4-1.1,2.4-2.4c0,0,0,0,0,0
		c0.1-1.3-0.9-2.4-2.2-2.5C87.7,184.1,87.6,184.1,87.5,184.1z"/>
	<path class="st1" d="M98.1,184.1c-1.3,0-2.4,1.1-2.4,2.4s1.1,2.4,2.4,2.4c1.3,0,2.4-1.1,2.4-2.4l0,0
		C100.5,185.2,99.4,184.1,98.1,184.1C98.1,184.1,98.1,184.1,98.1,184.1z"/>
	<path class="st1" d="M108.7,184.1c-1.3,0-2.4,1.1-2.4,2.4s1.1,2.4,2.4,2.4c1.3,0,2.4-1.1,2.4-2.4l0,0
		C111.1,185.2,110,184.1,108.7,184.1z"/>
	<path class="st1" d="M119.1,184.1c-1.3,0-2.4,1.1-2.4,2.4s1.1,2.4,2.4,2.4c1.3,0,2.4-1.1,2.4-2.4l0,0c0-1.3-1-2.4-2.3-2.4
		C119.2,184.1,119.2,184.1,119.1,184.1z"/>
	<path class="st1" d="M129.7,184.1c-1.3,0-2.4,1.1-2.4,2.4s1.1,2.4,2.4,2.4s2.4-1.1,2.4-2.4l0,0C132.1,185.2,131,184.1,129.7,184.1
		C129.7,184.1,129.7,184.1,129.7,184.1z"/>
	<path class="st1" d="M140.3,184.1c-1.3,0-2.4,1.1-2.4,2.4s1.1,2.4,2.4,2.4s2.4-1.1,2.4-2.4l0,0
		C142.7,185.2,141.6,184.1,140.3,184.1z"/>
	<path class="st1" d="M150.7,184.1c-1.3,0-2.4,1.1-2.4,2.4s1.1,2.4,2.4,2.4s2.4-1.1,2.4-2.4l0,0
		C153.2,185.2,152.1,184.1,150.7,184.1C150.7,184.1,150.7,184.1,150.7,184.1z"/>
	<path class="st1" d="M161.3,184.1c-1.3,0-2.4,1.1-2.4,2.4s1.1,2.4,2.4,2.4c1.3,0,2.4-1.1,2.4-2.4l0,0
		C163.7,185.2,162.7,184.1,161.3,184.1C161.3,184.1,161.3,184.1,161.3,184.1z"/>
	<path class="st1" d="M171.9,184.1c-1.3,0-2.4,1.1-2.4,2.4c0,1.3,1.1,2.4,2.4,2.4c1.3,0,2.4-1.1,2.4-2.4
		C174.3,185.2,173.2,184.1,171.9,184.1z"/>
	<path class="st1" d="M182.3,184.1c-1.3,0-2.4,1.1-2.4,2.4s1.1,2.4,2.4,2.4c1.3,0,2.4-1.1,2.4-2.4l0,0
		C184.8,185.2,183.7,184.1,182.3,184.1C182.3,184.1,182.3,184.1,182.3,184.1z"/>
	<path class="st1" d="M192.9,184.1c-1.3,0-2.4,1.1-2.4,2.4s1.1,2.4,2.4,2.4c1.3,0,2.4-1.1,2.4-2.4l0,0
		C195.3,185.2,194.2,184.1,192.9,184.1z"/>
	<path class="st1" d="M203.4,184.1c-1.3,0-2.4,1.1-2.4,2.4s1.1,2.4,2.4,2.4c1.3,0,2.4-1.1,2.4-2.4l0,0c0-1.3-1-2.4-2.3-2.4
		C203.5,184.1,203.4,184.1,203.4,184.1z"/>
	<path class="st1" d="M87.5,194.6c-1.3,0-2.4,1.1-2.4,2.4c0,0,0,0,0,0c0,1.3,1.1,2.4,2.4,2.4c1.3,0,2.4-1.1,2.4-2.5
		C89.9,195.7,88.8,194.7,87.5,194.6L87.5,194.6z"/>
	<path class="st1" d="M98.1,194.6c-1.3,0-2.4,1.1-2.4,2.4c0,0,0,0,0,0c0,1.3,1.1,2.4,2.4,2.4c1.3,0,2.4-1.1,2.4-2.5
		C100.4,195.7,99.4,194.7,98.1,194.6L98.1,194.6z"/>
	<path class="st1" d="M108.7,194.6c-1.3,0-2.4,1.1-2.4,2.4c0,0,0,0,0,0c0,1.3,1.1,2.4,2.4,2.4c1.3,0,2.4-1.1,2.4-2.4c0,0,0,0,0,0
		C111.1,195.8,110,194.7,108.7,194.6z"/>
	<path class="st1" d="M119.1,194.6c-1.3,0-2.4,1.1-2.4,2.4c0,0,0,0,0,0c0,1.3,1.1,2.4,2.4,2.4c1.3,0,2.4-1,2.5-2.4
		S120.6,194.7,119.1,194.6C119.2,194.6,119.2,194.6,119.1,194.6L119.1,194.6z"/>
	<path class="st1" d="M129.7,194.6c-1.3,0-2.4,1.1-2.4,2.4c0,0,0,0,0,0c0,1.3,1.1,2.4,2.4,2.4c1.3,0,2.4-1.1,2.4-2.5
		C132.1,195.7,131,194.7,129.7,194.6L129.7,194.6z"/>
	<path class="st1" d="M140.3,194.6c-1.3,0-2.4,1.1-2.4,2.4c0,0,0,0,0,0c0,1.3,1.1,2.4,2.4,2.4c1.3,0,2.4-1.1,2.4-2.4c0,0,0,0,0,0
		C142.7,195.8,141.6,194.7,140.3,194.6z"/>
	<path class="st1" d="M150.7,194.6c-1.3,0-2.4,1.1-2.4,2.4c0,0,0,0,0,0c0,1.3,1.1,2.4,2.4,2.4c1.3,0,2.4-1,2.5-2.4
		S152.2,194.7,150.7,194.6C150.8,194.6,150.8,194.6,150.7,194.6L150.7,194.6z"/>
	<path class="st1" d="M161.3,194.6c-1.3,0-2.4,1.1-2.4,2.4c0,0,0,0,0,0c0,1.3,1.1,2.4,2.4,2.4c1.3,0,2.4-1.1,2.4-2.5
		C163.7,195.7,162.6,194.7,161.3,194.6L161.3,194.6z"/>
	<path class="st1" d="M171.9,194.6c-1.3,0-2.4,1.1-2.4,2.4c0,0,0,0,0,0c0,1.3,1.1,2.4,2.4,2.4c1.3,0,2.4-1.1,2.4-2.4c0,0,0,0,0,0
		C174.3,195.8,173.2,194.7,171.9,194.6z"/>
	<path class="st1" d="M182.3,194.6c-1.3,0-2.4,1.1-2.4,2.4c0,1.3,1.1,2.4,2.4,2.4c1.3,0,2.4-1.1,2.4-2.5
		C184.7,195.7,183.6,194.7,182.3,194.6L182.3,194.6z"/>
	<path class="st1" d="M192.9,194.6c-1.3,0-2.4,1.1-2.4,2.4c0,0,0,0,0,0c0,1.3,1.1,2.4,2.4,2.4c1.3,0,2.4-1.1,2.4-2.4c0,0,0,0,0,0
		C195.3,195.7,194.2,194.7,192.9,194.6z"/>
	<path class="st1" d="M203.4,194.6c-1.3,0-2.4,1.1-2.4,2.4c0,0,0,0,0,0c0,1.3,1.1,2.4,2.4,2.4c1.3,0,2.4-1.1,2.4-2.5
		C205.7,195.7,204.7,194.7,203.4,194.6L203.4,194.6z"/>
	<path class="st1" d="M87.5,205.2c-1.3,0-2.4,1.1-2.4,2.4s1.1,2.4,2.4,2.4c1.3,0,2.4-1.1,2.4-2.4l0,0c0.1-1.3-0.9-2.3-2.1-2.4
		C87.7,205.2,87.6,205.2,87.5,205.2z"/>
	<path class="st1" d="M98.1,205.2c-1.3,0-2.4,1.1-2.4,2.4s1.1,2.4,2.4,2.4c1.3,0,2.4-1.1,2.4-2.4l0,0c0-1.3-1-2.4-2.3-2.4
		C98.2,205.2,98.2,205.2,98.1,205.2z"/>
	<path class="st1" d="M108.7,205.2c-1.3,0-2.4,1.1-2.4,2.4s1.1,2.4,2.4,2.4c1.3,0,2.4-1.1,2.4-2.4l0,0
		C111.1,206.3,110,205.2,108.7,205.2C108.7,205.2,108.7,205.2,108.7,205.2z"/>
	<path class="st1" d="M119.1,205.2c-1.3,0-2.4,1.1-2.4,2.4s1.1,2.4,2.4,2.4c1.3,0,2.4-1.1,2.4-2.4l0,0c0.1-1.3-0.9-2.3-2.1-2.4
		C119.3,205.2,119.2,205.2,119.1,205.2z"/>
	<path class="st1" d="M129.7,205.2c-1.3,0-2.4,1.1-2.4,2.4s1.1,2.4,2.4,2.4s2.4-1.1,2.4-2.4l0,0c0-1.3-1-2.4-2.3-2.4
		C129.8,205.2,129.8,205.2,129.7,205.2z"/>
	<path class="st1" d="M140.3,205.2c-1.3,0-2.4,1.1-2.4,2.4s1.1,2.4,2.4,2.4s2.4-1.1,2.4-2.4l0,0
		C142.7,206.3,141.6,205.2,140.3,205.2C140.3,205.2,140.3,205.2,140.3,205.2z"/>
	<path class="st1" d="M150.7,205.2c-1.3,0-2.4,1.1-2.4,2.4s1.1,2.4,2.4,2.4s2.4-1.1,2.4-2.4l0,0c0-1.3-1-2.4-2.3-2.4
		C150.8,205.2,150.8,205.2,150.7,205.2z"/>
	<path class="st1" d="M161.3,205.2c-1.3,0-2.4,1.1-2.4,2.4s1.1,2.4,2.4,2.4c1.3,0,2.4-1.1,2.4-2.4l0,0c0-1.3-1-2.4-2.3-2.4
		C161.4,205.2,161.4,205.2,161.3,205.2z"/>
	<path class="st1" d="M171.9,205.2c-1.3,0-2.4,1.1-2.4,2.4c0,1.3,1.1,2.4,2.4,2.4c1.3,0,2.4-1.1,2.4-2.4
		C174.3,206.3,173.2,205.2,171.9,205.2C171.9,205.2,171.9,205.2,171.9,205.2z"/>
	<path class="st1" d="M182.3,205.2c-1.3,0-2.4,1.1-2.4,2.4s1.1,2.4,2.4,2.4c1.3,0,2.4-1.1,2.4-2.4l0,0c0-1.3-1-2.4-2.3-2.4
		C182.5,205.2,182.4,205.2,182.3,205.2z"/>
	<path class="st1" d="M192.9,205.2c-1.3,0-2.4,1.1-2.4,2.4s1.1,2.4,2.4,2.4c1.3,0,2.4-1.1,2.4-2.4l0,0
		C195.3,206.3,194.3,205.2,192.9,205.2C192.9,205.2,192.9,205.2,192.9,205.2z"/>
	<path class="st1" d="M203.4,205.2c-1.3,0-2.4,1.1-2.4,2.4s1.1,2.4,2.4,2.4c1.3,0,2.4-1.1,2.4-2.4l0,0c0.1-1.3-0.9-2.3-2.1-2.4
		C203.6,205.2,203.5,205.2,203.4,205.2z"/>
	<path class="st1" d="M87.5,215.7c-1.3,0-2.4,1.1-2.4,2.4s1.1,2.4,2.4,2.4c1.3,0,2.4-1.1,2.4-2.4l0,0c0-1.3-1-2.4-2.3-2.4
		C87.6,215.7,87.6,215.7,87.5,215.7z"/>
	<path class="st1" d="M98.1,215.7c-1.3,0-2.4,1.1-2.4,2.4s1.1,2.4,2.4,2.4c1.3,0,2.4-1.1,2.4-2.4l0,0
		C100.5,216.8,99.4,215.7,98.1,215.7C98.1,215.7,98.1,215.7,98.1,215.7z"/>
	<path class="st1" d="M108.7,215.7c-1.3,0-2.4,1.1-2.4,2.4s1.1,2.4,2.4,2.4c1.3,0,2.4-1.1,2.4-2.4l0,0
		C111.1,216.8,110,215.7,108.7,215.7z"/>
	<path class="st1" d="M119.1,215.7c-1.3,0-2.4,1.1-2.4,2.4s1.1,2.4,2.4,2.4c1.3,0,2.4-1.1,2.4-2.4l0,0c0-1.3-1-2.4-2.3-2.4
		C119.2,215.7,119.2,215.7,119.1,215.7z"/>
	<path class="st1" d="M129.7,215.7c-1.3,0-2.4,1.1-2.4,2.4s1.1,2.4,2.4,2.4s2.4-1.1,2.4-2.4l0,0C132.1,216.8,131,215.7,129.7,215.7
		C129.7,215.7,129.7,215.7,129.7,215.7z"/>
	<path class="st1" d="M140.3,215.7c-1.3,0-2.4,1.1-2.4,2.4s1.1,2.4,2.4,2.4s2.4-1.1,2.4-2.4l0,0
		C142.7,216.8,141.6,215.7,140.3,215.7z"/>
	<path class="st1" d="M150.7,215.7c-1.3,0-2.4,1.1-2.4,2.4s1.1,2.4,2.4,2.4s2.4-1.1,2.4-2.4l0,0
		C153.2,216.8,152.1,215.7,150.7,215.7C150.7,215.7,150.7,215.7,150.7,215.7z"/>
	<path class="st1" d="M161.3,215.7c-1.3,0-2.4,1.1-2.4,2.4s1.1,2.4,2.4,2.4c1.3,0,2.4-1.1,2.4-2.4l0,0
		C163.7,216.8,162.7,215.7,161.3,215.7C161.3,215.7,161.3,215.7,161.3,215.7z"/>
	<path class="st1" d="M171.9,215.7c-1.3,0-2.4,1.1-2.4,2.4c0,1.3,1.1,2.4,2.4,2.4c1.3,0,2.4-1.1,2.4-2.4
		C174.3,216.8,173.2,215.7,171.9,215.7z"/>
	<path class="st1" d="M182.3,215.7c-1.3,0-2.4,1.1-2.4,2.4s1.1,2.4,2.4,2.4c1.3,0,2.4-1.1,2.4-2.4l0,0
		C184.8,216.8,183.7,215.7,182.3,215.7C182.3,215.7,182.3,215.7,182.3,215.7z"/>
	<path class="st1" d="M192.9,215.7c-1.3,0-2.4,1.1-2.4,2.4s1.1,2.4,2.4,2.4c1.3,0,2.4-1.1,2.4-2.4l0,0
		C195.3,216.8,194.2,215.7,192.9,215.7z"/>
	<path class="st1" d="M203.4,215.7c-1.3,0-2.4,1.1-2.4,2.4s1.1,2.4,2.4,2.4c1.3,0,2.4-1.1,2.4-2.4l0,0c0-1.3-1-2.4-2.3-2.4
		C203.5,215.7,203.4,215.7,203.4,215.7z"/>
	<path class="st1" d="M87.5,226.3c-1.3,0-2.4,1.1-2.4,2.4s1.1,2.4,2.4,2.4c1.3,0,2.4-1.1,2.4-2.4l0,0c0-1.3-1-2.4-2.3-2.4
		C87.6,226.3,87.6,226.3,87.5,226.3z"/>
	<path class="st1" d="M98.1,226.3c-1.3,0-2.4,1.1-2.4,2.4s1.1,2.4,2.4,2.4c1.3,0,2.4-1.1,2.4-2.4l0,0
		C100.5,227.3,99.4,226.3,98.1,226.3C98.1,226.3,98.1,226.3,98.1,226.3z"/>
	<path class="st1" d="M108.7,226.3c-1.3,0-2.4,1.1-2.4,2.4s1.1,2.4,2.4,2.4c1.3,0,2.4-1.1,2.4-2.4l0,0
		C111.1,227.4,110,226.3,108.7,226.3z"/>
	<path class="st1" d="M119.1,226.3c-1.3,0-2.4,1.1-2.4,2.4s1.1,2.4,2.4,2.4c1.3,0,2.4-1.1,2.4-2.4l0,0c0-1.3-1-2.4-2.3-2.4
		C119.2,226.3,119.2,226.3,119.1,226.3z"/>
	<path class="st1" d="M129.7,226.3c-1.3,0-2.4,1.1-2.4,2.4s1.1,2.4,2.4,2.4s2.4-1.1,2.4-2.4l0,0C132.1,227.3,131,226.3,129.7,226.3
		C129.7,226.3,129.7,226.3,129.7,226.3z"/>
	<path class="st1" d="M140.3,226.3c-1.3,0-2.4,1.1-2.4,2.4s1.1,2.4,2.4,2.4s2.4-1.1,2.4-2.4l0,0
		C142.7,227.4,141.6,226.3,140.3,226.3z"/>
	<path class="st1" d="M150.7,226.3c-1.3,0-2.4,1.1-2.4,2.4s1.1,2.4,2.4,2.4s2.4-1.1,2.4-2.4l0,0
		C153.2,227.3,152.1,226.3,150.7,226.3C150.7,226.3,150.7,226.3,150.7,226.3z"/>
	<path class="st1" d="M161.3,226.3c-1.3,0-2.4,1.1-2.4,2.4s1.1,2.4,2.4,2.4c1.3,0,2.4-1.1,2.4-2.4l0,0
		C163.7,227.3,162.7,226.3,161.3,226.3C161.3,226.3,161.3,226.3,161.3,226.3z"/>
	<path class="st1" d="M171.9,226.3c-1.3,0-2.4,1.1-2.4,2.4c0,1.3,1.1,2.4,2.4,2.4c1.3,0,2.4-1.1,2.4-2.4
		C174.3,227.4,173.2,226.3,171.9,226.3z"/>
	<path class="st1" d="M182.3,226.3c-1.3,0-2.4,1.1-2.4,2.4s1.1,2.4,2.4,2.4c1.3,0,2.4-1.1,2.4-2.4l0,0
		C184.8,227.3,183.7,226.3,182.3,226.3C182.3,226.3,182.3,226.3,182.3,226.3z"/>
	<path class="st1" d="M192.9,226.3c-1.3,0-2.4,1.1-2.4,2.4s1.1,2.4,2.4,2.4c1.3,0,2.4-1.1,2.4-2.4l0,0
		C195.3,227.4,194.2,226.3,192.9,226.3z"/>
	<path class="st1" d="M203.4,226.3c-1.3,0-2.4,1.1-2.4,2.4s1.1,2.4,2.4,2.4c1.3,0,2.4-1.1,2.4-2.4l0,0c0-1.3-1-2.4-2.3-2.4
		C203.5,226.3,203.4,226.3,203.4,226.3z"/>
</g>
</svg>
