<?xml version="1.0" encoding="utf-8"?>
<!-- Generator: Adobe Illustrator 24.2.0, SVG Export Plug-In . SVG Version: 6.00 Build 0)  -->
<svg version="1.1" id="Layer_1" xmlns="http://www.w3.org/2000/svg" xmlns:xlink="http://www.w3.org/1999/xlink" x="0px" y="0px"
	 viewBox="0 0 86.5 227.8" style="enable-background:new 0 0 86.5 227.8;" xml:space="preserve">
<style type="text/css">
	.st0{fill-rule:evenodd;clip-rule:evenodd;fill:#305BC9;}
	.st1{fill:#FFFFFF;stroke:#FFFFFF;stroke-width:2;}
</style>
<g transform="translate(99.059 1) rotate(90)">
	<path class="st0" d="M225.1,12.5H73.3l-0.1,61.9H225L225.1,12.5z"/>
	<path class="st1" d="M207,55.6c-5,0-7.4-3-9.8-5.8c-2.3-2.8-4.5-5.5-9-5.5s-6.7,2.7-9,5.5c-2.4,2.8-4.8,5.8-9.8,5.8s-7.4-3-9.8-5.8
		c-2.3-2.8-4.5-5.5-9-5.5s-6.7,2.7-9,5.5c-2.4,2.8-4.8,5.8-9.8,5.8c-5,0-7.4-3-9.8-5.8c-2.3-2.8-4.5-5.5-9-5.5s-6.7,2.7-9,5.5
		c-2.4,2.8-4.8,5.8-9.8,5.8s-7.4-3-9.8-5.8c-2.3-2.8-4.5-5.5-9-5.5s-6.7,2.7-9,5.5c-2.4,2.8-4.8,5.8-9.8,5.8s-7.4-3-9.8-5.8
		c-2.3-2.8-4.5-5.5-9-5.5s-6.7,2.7-9,5.5c-2.4,2.8-4.8,5.8-9.8,5.8s-7.4-3-9.8-5.8c-2.3-2.8-4.5-5.5-9-5.5v-1.4c5,0,7.4,3,9.8,5.8
		c2.3,2.8,4.5,5.5,9,5.5s6.7-2.7,9-5.5c2.4-2.8,4.8-5.8,9.8-5.8s7.4,3,9.8,5.8c2.3,2.8,4.5,5.5,9,5.5s6.7-2.7,9-5.5
		c2.4-2.8,4.8-5.8,9.8-5.8s7.4,3,9.8,5.8c2.3,2.8,4.5,5.5,9,5.5s6.7-2.7,9-5.5c2.4-2.8,4.8-5.8,9.8-5.8s7.4,3,9.8,5.8
		c2.3,2.8,4.5,5.5,9,5.5c4.5,0,6.7-2.7,9-5.5c2.4-2.8,4.8-5.8,9.8-5.8s7.4,3,9.8,5.8c2.3,2.8,4.5,5.5,9,5.5s6.7-2.7,9-5.5
		c2.4-2.8,4.8-5.8,9.8-5.8s7.4,3,9.8,5.8c2.3,2.8,4.5,5.5,9,5.5s6.7-2.7,9-5.5c2.4-2.8,4.8-5.8,9.8-5.8v1.4c-4.5,0-6.7,2.7-9,5.5
		C214.4,52.6,212,55.6,207,55.6z"/>
	<path class="st1" d="M207,69.8c-5,0-7.4-3-9.8-5.8c-2.3-2.8-4.5-5.5-9-5.5s-6.7,2.7-9,5.5c-2.4,2.8-4.8,5.8-9.8,5.8s-7.4-3-9.8-5.8
		c-2.3-2.8-4.5-5.5-9-5.5s-6.7,2.7-9,5.5c-2.4,2.8-4.8,5.8-9.8,5.8c-5,0-7.4-3-9.8-5.8c-2.3-2.8-4.5-5.5-9-5.5s-6.7,2.7-9,5.5
		c-2.4,2.8-4.8,5.8-9.8,5.8s-7.4-3-9.8-5.8c-2.3-2.8-4.5-5.5-9-5.5s-6.7,2.7-9,5.5c-2.4,2.8-4.8,5.8-9.8,5.8s-7.4-3-9.8-5.8
		c-2.3-2.8-4.5-5.5-9-5.5s-6.7,2.7-9,5.5c-2.4,2.8-4.8,5.8-9.8,5.8s-7.4-3-9.8-5.8c-2.3-2.8-4.5-5.5-9-5.5V57c5,0,7.4,3,9.8,5.8
		c2.3,2.8,4.5,5.5,9,5.5s6.7-2.7,9-5.5c2.4-2.8,4.8-5.8,9.8-5.8s7.4,3,9.8,5.8c2.3,2.8,4.5,5.5,9,5.5s6.7-2.7,9-5.5
		C68,60,70.4,57,75.4,57s7.4,3,9.8,5.8c2.3,2.8,4.5,5.5,9,5.5s6.7-2.7,9-5.5C105.6,60,108,57,113,57s7.4,3,9.8,5.8
		c2.3,2.8,4.5,5.5,9,5.5c4.5,0,6.7-2.7,9-5.5c2.4-2.8,4.8-5.8,9.8-5.8s7.4,3,9.8,5.8c2.3,2.8,4.5,5.5,9,5.5s6.7-2.7,9-5.5
		c2.4-2.8,4.8-5.8,9.8-5.8s7.4,3,9.8,5.8c2.3,2.8,4.5,5.5,9,5.5s6.7-2.7,9-5.5c2.4-2.8,4.8-5.8,9.8-5.8v1.4c-4.5,0-6.7,2.7-9,5.5
		C214.4,66.8,212,69.8,207,69.8z"/>
	<path class="st1" d="M207,83.9c-5,0-7.4-3-9.8-5.8c-2.3-2.8-4.5-5.5-9-5.5s-6.7,2.7-9,5.5c-2.4,2.8-4.8,5.8-9.8,5.8s-7.4-3-9.8-5.8
		c-2.3-2.8-4.5-5.5-9-5.5s-6.7,2.7-9,5.5c-2.4,2.8-4.8,5.8-9.8,5.8c-5,0-7.4-3-9.8-5.8c-2.3-2.8-4.5-5.5-9-5.5s-6.7,2.7-9,5.5
		c-2.4,2.8-4.8,5.8-9.8,5.8s-7.4-3-9.8-5.8c-2.3-2.8-4.5-5.5-9-5.5s-6.7,2.7-9,5.5c-2.4,2.8-4.8,5.8-9.8,5.8s-7.4-3-9.8-5.8
		c-2.3-2.8-4.5-5.5-9-5.5s-6.7,2.7-9,5.5c-2.4,2.8-4.8,5.8-9.8,5.8s-7.4-3-9.8-5.8c-2.3-2.8-4.5-5.5-9-5.5v-1.4c5,0,7.4,3,9.8,5.8
		c2.3,2.8,4.5,5.5,9,5.5s6.7-2.7,9-5.5c2.4-2.8,4.8-5.8,9.8-5.8s7.4,3,9.8,5.8c2.3,2.8,4.5,5.5,9,5.5s6.7-2.7,9-5.5
		c2.4-2.8,4.8-5.8,9.8-5.8s7.4,3,9.8,5.8c2.3,2.8,4.5,5.5,9,5.5s6.7-2.7,9-5.5c2.4-2.8,4.8-5.8,9.8-5.8s7.4,3,9.8,5.8
		c2.3,2.8,4.5,5.5,9,5.5c4.5,0,6.7-2.7,9-5.5c2.4-2.8,4.8-5.8,9.8-5.8s7.4,3,9.8,5.8c2.3,2.8,4.5,5.5,9,5.5s6.7-2.7,9-5.5
		c2.4-2.8,4.8-5.8,9.8-5.8s7.4,3,9.8,5.8c2.3,2.8,4.5,5.5,9,5.5s6.7-2.7,9-5.5c2.4-2.8,4.8-5.8,9.8-5.8v1.4c-4.5,0-6.7,2.7-9,5.5
		C214.4,80.9,212,83.9,207,83.9z"/>
	<path class="st1" d="M207,98.1c-5,0-7.4-3-9.8-5.8c-2.3-2.8-4.5-5.5-9-5.5s-6.7,2.7-9,5.5c-2.4,2.8-4.8,5.8-9.8,5.8s-7.4-3-9.8-5.8
		c-2.3-2.8-4.5-5.5-9-5.5s-6.7,2.7-9,5.5c-2.4,2.8-4.8,5.8-9.8,5.8c-5,0-7.4-3-9.8-5.8c-2.3-2.8-4.5-5.5-9-5.5s-6.7,2.7-9,5.5
		c-2.4,2.8-4.8,5.8-9.8,5.8s-7.4-3-9.8-5.8c-2.3-2.8-4.5-5.5-9-5.5s-6.7,2.7-9,5.5c-2.4,2.8-4.8,5.8-9.8,5.8s-7.4-3-9.8-5.8
		c-2.3-2.8-4.5-5.5-9-5.5s-6.7,2.7-9,5.5c-2.4,2.8-4.8,5.8-9.8,5.8s-7.4-3-9.8-5.8c-2.3-2.8-4.5-5.5-9-5.5v-1.4c5,0,7.4,3,9.8,5.8
		c2.3,2.8,4.5,5.5,9,5.5s6.7-2.7,9-5.5c2.4-2.8,4.8-5.8,9.8-5.8s7.4,3,9.8,5.8c2.3,2.8,4.5,5.5,9,5.5s6.7-2.7,9-5.5
		c2.4-2.8,4.8-5.8,9.8-5.8s7.4,3,9.8,5.8c2.3,2.8,4.5,5.5,9,5.5s6.7-2.7,9-5.5c2.4-2.8,4.8-5.8,9.8-5.8s7.4,3,9.8,5.8
		c2.3,2.8,4.5,5.5,9,5.5c4.5,0,6.7-2.7,9-5.5c2.4-2.8,4.8-5.8,9.8-5.8s7.4,3,9.8,5.8c2.3,2.8,4.5,5.5,9,5.5s6.7-2.7,9-5.5
		c2.4-2.8,4.8-5.8,9.8-5.8s7.4,3,9.8,5.8c2.3,2.8,4.5,5.5,9,5.5s6.7-2.7,9-5.5c2.4-2.8,4.8-5.8,9.8-5.8v1.4c-4.5,0-6.7,2.7-9,5.5
		C214.4,95.1,212,98.1,207,98.1z"/>
</g>
</svg>
