<?xml version="1.0" encoding="utf-8"?>
<!-- Generator: Adobe Illustrator 24.2.0, SVG Export Plug-In . SVG Version: 6.00 Build 0)  -->
<svg version="1.1" id="Layer_1" xmlns="http://www.w3.org/2000/svg" xmlns:xlink="http://www.w3.org/1999/xlink" x="0px" y="0px"
	 viewBox="0 0 232.4 208.3" style="enable-background:new 0 0 232.4 208.3;" xml:space="preserve">
<style type="text/css">
	.st0{fill:#305BC9;}
	.st1{fill:#FFFFFF;}
</style>
<g transform="translate(-6 -52)">
	<circle class="st0" cx="91.5" cy="137.5" r="85.5"/>
	<path class="st1" d="M100.8,144.4c-1.5,0.1-2.8,1.3-2.8,2.8c0,1.6,1.3,2.8,2.8,2.8c1.6,0,2.8-1.3,2.8-2.8c0,0,0,0,0,0
		c0.1-1.5-1.1-2.8-2.6-2.8C101,144.4,100.9,144.4,100.8,144.4z"/>
	<path class="st1" d="M113.1,144.4c-1.6,0-2.8,1.3-2.8,2.8s1.3,2.8,2.8,2.8s2.8-1.3,2.8-2.8C116,145.7,114.7,144.4,113.1,144.4
		C113.1,144.4,113.1,144.4,113.1,144.4z"/>
	<path class="st1" d="M125.4,144.4c-1.6,0-2.8,1.3-2.8,2.8s1.3,2.8,2.8,2.8s2.8-1.3,2.8-2.8C128.2,145.7,127,144.5,125.4,144.4z"/>
	<path class="st1" d="M137.6,144.4c-1.6,0-2.8,1.3-2.8,2.8s1.3,2.8,2.8,2.8s2.8-1.3,2.8-2.8c0.1-1.5-1.1-2.8-2.6-2.8
		C137.7,144.4,137.7,144.4,137.6,144.4z"/>
	<path class="st1" d="M149.9,144.4c-1.6,0-2.8,1.3-2.8,2.8s1.3,2.8,2.8,2.8s2.8-1.3,2.8-2.8C152.7,145.7,151.5,144.4,149.9,144.4
		C149.9,144.4,149.9,144.4,149.9,144.4z"/>
	<path class="st1" d="M162.2,144.4c-1.6,0-2.8,1.3-2.8,2.8s1.3,2.8,2.8,2.8s2.8-1.3,2.8-2.8C165,145.7,163.7,144.5,162.2,144.4z"/>
	<path class="st1" d="M174.4,144.4c-1.6,0-2.8,1.3-2.8,2.8s1.3,2.8,2.8,2.8s2.8-1.3,2.8-2.8C177.2,145.7,175.9,144.4,174.4,144.4
		C174.4,144.4,174.4,144.4,174.4,144.4z"/>
	<path class="st1" d="M186.7,144.4c-1.6,0-2.8,1.3-2.8,2.8s1.3,2.8,2.8,2.8s2.8-1.3,2.8-2.8C189.5,145.7,188.2,144.4,186.7,144.4
		C186.7,144.4,186.7,144.4,186.7,144.4z"/>
	<path class="st1" d="M199,144.4c-1.6,0-2.8,1.3-2.8,2.8s1.3,2.8,2.8,2.8s2.8-1.3,2.8-2.8C201.7,145.7,200.5,144.5,199,144.4z"/>
	<path class="st1" d="M211.1,144.4c-1.6,0-2.8,1.3-2.8,2.8s1.3,2.8,2.8,2.8s2.8-1.3,2.8-2.8C214,145.7,212.7,144.4,211.1,144.4
		C211.1,144.4,211.1,144.4,211.1,144.4z"/>
	<path class="st1" d="M223.4,144.4c-1.6,0-2.8,1.3-2.8,2.8s1.3,2.8,2.8,2.8s2.8-1.3,2.8-2.8C226.2,145.7,225,144.4,223.4,144.4z"/>
	<path class="st1" d="M235.6,150.2c1.6,0,2.8-1.3,2.8-2.8s-1.3-2.8-2.8-2.8s-2.8,1.3-2.8,2.8C232.8,148.9,234.1,150.1,235.6,150.2z"
		/>
	<path class="st1" d="M100.8,156.7c-1.6,0-2.8,1.3-2.8,2.8s1.3,2.8,2.8,2.8s2.8-1.3,2.8-2.8c0,0,0,0,0,0c0.1-1.5-1-2.7-2.5-2.8
		C101.1,156.7,100.9,156.7,100.8,156.7z"/>
	<path class="st1" d="M113.1,156.7c-1.6,0-2.8,1.3-2.8,2.8s1.3,2.8,2.8,2.8s2.8-1.3,2.8-2.8c0,0,0,0,0,0c0.1-1.5-1.1-2.8-2.6-2.8
		C113.3,156.7,113.2,156.7,113.1,156.7z"/>
	<path class="st1" d="M125.4,156.7c-1.6,0-2.8,1.3-2.8,2.8s1.3,2.8,2.8,2.8s2.8-1.3,2.8-2.8c0,0,0,0,0,0
		C128.3,158,127,156.7,125.4,156.7C125.4,156.7,125.4,156.7,125.4,156.7z"/>
	<path class="st1" d="M137.6,156.7c-1.6,0-2.8,1.3-2.8,2.8s1.3,2.8,2.8,2.8s2.8-1.3,2.8-2.8c0,0,0,0,0,0c0.1-1.5-1-2.7-2.5-2.8
		C137.8,156.7,137.7,156.7,137.6,156.7z"/>
	<path class="st1" d="M149.9,156.7c-1.6,0-2.8,1.3-2.8,2.8s1.3,2.8,2.8,2.8s2.8-1.3,2.8-2.8c0.1-1.5-1.1-2.8-2.6-2.8
		C150,156.7,150,156.7,149.9,156.7z"/>
	<path class="st1" d="M162.2,156.7c-1.6,0-2.8,1.3-2.8,2.8c0,1.6,1.3,2.8,2.8,2.8s2.8-1.3,2.8-2.8c0,0,0,0,0,0
		C165,158,163.8,156.7,162.2,156.7z"/>
	<path class="st1" d="M174.4,156.7c-1.6,0-2.8,1.3-2.8,2.8s1.3,2.8,2.8,2.8s2.8-1.3,2.8-2.8c0.1-1.5-1.1-2.8-2.6-2.8
		C174.5,156.7,174.4,156.7,174.4,156.7z"/>
	<path class="st1" d="M186.7,156.7c-1.6,0-2.8,1.3-2.8,2.8s1.3,2.8,2.8,2.8s2.8-1.3,2.8-2.8c0.1-1.5-1.1-2.8-2.6-2.8
		C186.8,156.7,186.7,156.7,186.7,156.7z"/>
	<path class="st1" d="M199,156.7c-1.6,0-2.8,1.3-2.8,2.8s1.3,2.8,2.8,2.8s2.8-1.3,2.8-2.8C201.8,158,200.5,156.7,199,156.7
		C199,156.7,199,156.7,199,156.7z"/>
	<path class="st1" d="M211.1,156.7c-1.6,0-2.8,1.3-2.8,2.8s1.3,2.8,2.8,2.8s2.8-1.3,2.8-2.8c0.1-1.5-1.1-2.8-2.6-2.8
		C211.3,156.7,211.2,156.7,211.1,156.7z"/>
	<path class="st1" d="M223.4,156.7c-1.6,0-2.8,1.3-2.8,2.8s1.3,2.8,2.8,2.8s2.8-1.3,2.8-2.8C226.3,158,225,156.7,223.4,156.7
		C223.5,156.7,223.4,156.7,223.4,156.7z"/>
	<path class="st1" d="M235.6,156.7c-1.6,0-2.8,1.3-2.8,2.8s1.3,2.8,2.8,2.8c1.6,0,2.8-1.3,2.8-2.8c0.1-1.5-1-2.7-2.5-2.8
		C235.8,156.7,235.7,156.7,235.6,156.7z"/>
	<path class="st1" d="M100.8,168.9c-1.6,0-2.8,1.3-2.8,2.8s1.3,2.8,2.8,2.8s2.8-1.3,2.8-2.8c0.1-1.5-1.1-2.8-2.6-2.8
		C101,168.9,100.9,168.9,100.8,168.9z"/>
	<path class="st1" d="M113.1,168.9c-1.6,0-2.8,1.3-2.8,2.8s1.3,2.8,2.8,2.8s2.8-1.3,2.8-2.8C116,170.1,114.7,168.9,113.1,168.9
		C113.1,168.9,113.1,168.9,113.1,168.9z"/>
	<path class="st1" d="M125.4,168.9c-1.6,0-2.8,1.3-2.8,2.8s1.3,2.8,2.8,2.8s2.8-1.3,2.8-2.8C128.2,170.1,127,168.9,125.4,168.9z"/>
	<path class="st1" d="M137.6,168.9c-1.6,0-2.8,1.3-2.8,2.8s1.3,2.8,2.8,2.8s2.8-1.3,2.8-2.8c0.1-1.5-1.1-2.8-2.6-2.8
		C137.7,168.9,137.7,168.9,137.6,168.9z"/>
	<path class="st1" d="M149.9,168.9c-1.6,0-2.8,1.3-2.8,2.8s1.3,2.8,2.8,2.8s2.8-1.3,2.8-2.8C152.7,170.1,151.5,168.9,149.9,168.9
		C149.9,168.9,149.9,168.9,149.9,168.9z"/>
	<path class="st1" d="M162.2,168.9c-1.6,0-2.8,1.3-2.8,2.8s1.3,2.8,2.8,2.8s2.8-1.3,2.8-2.8C165,170.1,163.7,168.9,162.2,168.9z"/>
	<path class="st1" d="M174.4,168.9c-1.6,0-2.8,1.3-2.8,2.8s1.3,2.8,2.8,2.8s2.8-1.3,2.8-2.8C177.2,170.1,175.9,168.9,174.4,168.9
		C174.4,168.9,174.4,168.9,174.4,168.9z"/>
	<path class="st1" d="M186.7,168.9c-1.6,0-2.8,1.3-2.8,2.8s1.3,2.8,2.8,2.8s2.8-1.3,2.8-2.8C189.5,170.1,188.2,168.9,186.7,168.9
		C186.7,168.9,186.7,168.9,186.7,168.9z"/>
	<path class="st1" d="M199,168.9c-1.6,0-2.8,1.3-2.8,2.8s1.3,2.8,2.8,2.8s2.8-1.3,2.8-2.8C201.7,170.1,200.5,168.9,199,168.9z"/>
	<path class="st1" d="M211.1,168.9c-1.6,0-2.8,1.3-2.8,2.8s1.3,2.8,2.8,2.8s2.8-1.3,2.8-2.8C214,170.1,212.7,168.9,211.1,168.9
		C211.1,168.9,211.1,168.9,211.1,168.9z"/>
	<path class="st1" d="M223.4,168.9c-1.6,0-2.8,1.3-2.8,2.8s1.3,2.8,2.8,2.8s2.8-1.3,2.8-2.8C226.2,170.1,225,168.9,223.4,168.9z"/>
	<path class="st1" d="M235.6,168.9c-1.6,0-2.8,1.3-2.8,2.8s1.3,2.8,2.8,2.8s2.8-1.3,2.8-2.8c0.1-1.5-1.1-2.8-2.6-2.8
		C235.7,168.9,235.7,168.9,235.6,168.9z"/>
	<path class="st1" d="M100.8,186.8c1.6,0,2.8-1.3,2.8-2.8s-1.3-2.8-2.8-2.8S98,182.4,98,184S99.3,186.8,100.8,186.8
		C100.8,186.8,100.8,186.8,100.8,186.8z"/>
	<path class="st1" d="M113.1,181.2c-1.6,0-2.8,1.3-2.8,2.8s1.3,2.8,2.8,2.8s2.8-1.3,2.8-2.8C116,182.4,114.7,181.2,113.1,181.2
		C113.1,181.2,113.1,181.2,113.1,181.2z"/>
	<path class="st1" d="M125.4,181.2c-1.6,0-2.8,1.3-2.8,2.8s1.3,2.8,2.8,2.8s2.8-1.3,2.8-2.8C128.2,182.5,127,181.2,125.4,181.2z"/>
	<path class="st1" d="M137.6,181.2c-1.6,0-2.8,1.3-2.8,2.8s1.3,2.8,2.8,2.8s2.8-1.3,2.8-2.8c0.1-1.5-1.1-2.8-2.6-2.8
		C137.7,181.2,137.7,181.2,137.6,181.2z"/>
	<path class="st1" d="M149.9,181.2c-1.6,0-2.8,1.3-2.8,2.8s1.3,2.8,2.8,2.8s2.8-1.3,2.8-2.8C152.7,182.4,151.5,181.2,149.9,181.2
		C149.9,181.2,149.9,181.2,149.9,181.2z"/>
	<path class="st1" d="M162.2,181.2c-1.6,0-2.8,1.3-2.8,2.8s1.3,2.8,2.8,2.8s2.8-1.3,2.8-2.8C165,182.5,163.7,181.2,162.2,181.2z"/>
	<path class="st1" d="M174.4,181.2c-1.6,0-2.8,1.3-2.8,2.8s1.3,2.8,2.8,2.8s2.8-1.3,2.8-2.8C177.2,182.4,175.9,181.2,174.4,181.2
		C174.4,181.2,174.4,181.2,174.4,181.2z"/>
	<path class="st1" d="M186.7,181.2c-1.6,0-2.8,1.3-2.8,2.8s1.3,2.8,2.8,2.8s2.8-1.3,2.8-2.8C189.5,182.4,188.2,181.2,186.7,181.2
		C186.7,181.2,186.7,181.2,186.7,181.2z"/>
	<path class="st1" d="M199,181.2c-1.6,0-2.8,1.3-2.8,2.8s1.3,2.8,2.8,2.8s2.8-1.3,2.8-2.8C201.7,182.5,200.5,181.2,199,181.2z"/>
	<path class="st1" d="M211.1,181.2c-1.6,0-2.8,1.3-2.8,2.8s1.3,2.8,2.8,2.8s2.8-1.3,2.8-2.8C214,182.4,212.7,181.2,211.1,181.2
		C211.1,181.2,211.1,181.2,211.1,181.2z"/>
	<path class="st1" d="M223.4,181.2c-1.6,0-2.8,1.3-2.8,2.8s1.3,2.8,2.8,2.8s2.8-1.3,2.8-2.8C226.2,182.5,225,181.2,223.4,181.2z"/>
	<path class="st1" d="M235.6,181.2c-1.6,0-2.8,1.3-2.8,2.8s1.3,2.8,2.8,2.8s2.8-1.3,2.8-2.8c0.1-1.5-1.1-2.8-2.6-2.8
		C235.7,181.2,235.7,181.2,235.6,181.2z"/>
	<path class="st1" d="M100.8,193.5c-1.6,0-2.8,1.3-2.8,2.8s1.3,2.8,2.8,2.8s2.8-1.3,2.8-2.8c0.1-1.5-1-2.7-2.5-2.8
		C101.1,193.5,101,193.5,100.8,193.5z"/>
	<path class="st1" d="M113.1,193.5c-1.6,0-2.8,1.3-2.8,2.8s1.3,2.8,2.8,2.8s2.8-1.3,2.8-2.8c0.1-1.5-1.1-2.8-2.6-2.8
		C113.3,193.5,113.2,193.5,113.1,193.5z"/>
	<path class="st1" d="M125.4,193.5c-1.6,0-2.8,1.3-2.8,2.8s1.3,2.8,2.8,2.8s2.8-1.3,2.8-2.8C128.3,194.7,127,193.5,125.4,193.5
		C125.4,193.5,125.4,193.5,125.4,193.5z"/>
	<path class="st1" d="M137.6,193.5c-1.6,0-2.8,1.3-2.8,2.8s1.3,2.8,2.8,2.8s2.8-1.3,2.8-2.8c0.1-1.5-1-2.7-2.5-2.8
		C137.8,193.5,137.7,193.5,137.6,193.5z"/>
	<path class="st1" d="M149.9,193.5c-1.6,0-2.8,1.3-2.8,2.8s1.3,2.8,2.8,2.8s2.8-1.3,2.8-2.8c0.1-1.5-1.1-2.8-2.6-2.8
		C150,193.5,150,193.5,149.9,193.5z"/>
	<path class="st1" d="M162.2,193.5c-1.6,0-2.8,1.3-2.8,2.8s1.3,2.8,2.8,2.8s2.8-1.3,2.8-2.8C165,194.7,163.8,193.5,162.2,193.5
		C162.2,193.5,162.2,193.5,162.2,193.5z"/>
	<path class="st1" d="M174.4,193.5c-1.6,0-2.8,1.3-2.8,2.8s1.3,2.8,2.8,2.8s2.8-1.3,2.8-2.8c0.1-1.5-1.1-2.8-2.6-2.8
		C174.5,193.5,174.4,193.5,174.4,193.5z"/>
	<path class="st1" d="M186.7,193.5c-1.6,0-2.8,1.3-2.8,2.8s1.3,2.8,2.8,2.8s2.8-1.3,2.8-2.8c0.1-1.5-1.1-2.8-2.6-2.8
		C186.8,193.5,186.7,193.5,186.7,193.5z"/>
	<path class="st1" d="M199,193.5c-1.6,0-2.8,1.3-2.8,2.8s1.3,2.8,2.8,2.8s2.8-1.3,2.8-2.8C201.8,194.7,200.5,193.5,199,193.5
		C199,193.5,199,193.5,199,193.5z"/>
	<path class="st1" d="M211.1,193.5c-1.6,0-2.8,1.3-2.8,2.8s1.3,2.8,2.8,2.8s2.8-1.3,2.8-2.8c0.1-1.5-1.1-2.8-2.6-2.8
		C211.3,193.5,211.2,193.5,211.1,193.5z"/>
	<path class="st1" d="M223.4,193.5c-1.6,0-2.8,1.3-2.8,2.8s1.3,2.8,2.8,2.8s2.8-1.3,2.8-2.8C226.3,194.7,225,193.5,223.4,193.5
		C223.5,193.5,223.5,193.5,223.4,193.5z"/>
	<path class="st1" d="M235.6,193.5c-1.6,0-2.8,1.3-2.8,2.8s1.3,2.8,2.8,2.8s2.8-1.3,2.8-2.8c0.1-1.5-1-2.7-2.5-2.8
		C235.8,193.5,235.7,193.5,235.6,193.5z"/>
	<path class="st1" d="M100.8,205.6c-1.6,0.1-2.8,1.4-2.8,3c0.1,1.5,1.3,2.8,2.8,2.8c1.6,0,2.8-1.3,2.8-2.8c0,0,0,0,0,0
		c0.1-1.5-1-2.8-2.6-3C101,205.6,100.9,205.6,100.8,205.6z"/>
	<path class="st1" d="M113.1,205.6c-1.6,0-2.8,1.3-2.8,2.8s1.3,2.8,2.8,2.8s2.8-1.3,2.8-2.8C116,206.9,114.7,205.6,113.1,205.6
		C113.1,205.6,113.1,205.6,113.1,205.6z"/>
	<path class="st1" d="M125.4,205.6c-1.6,0-2.8,1.3-2.8,2.8s1.3,2.8,2.8,2.8s2.8-1.3,2.8-2.8C128.2,206.9,127,205.7,125.4,205.6z"/>
	<path class="st1" d="M137.6,205.6c-1.6,0-2.8,1.3-2.8,2.8s1.3,2.8,2.8,2.8s2.8-1.3,2.8-2.8c0.1-1.5-1.1-2.8-2.6-2.8
		C137.7,205.6,137.7,205.6,137.6,205.6z"/>
	<path class="st1" d="M149.9,205.6c-1.6,0-2.8,1.3-2.8,2.8s1.3,2.8,2.8,2.8s2.8-1.3,2.8-2.8C152.7,206.9,151.5,205.6,149.9,205.6
		C149.9,205.6,149.9,205.6,149.9,205.6z"/>
	<path class="st1" d="M162.2,205.6c-1.6,0-2.8,1.3-2.8,2.8s1.3,2.8,2.8,2.8s2.8-1.3,2.8-2.8C165,206.9,163.7,205.7,162.2,205.6z"/>
	<path class="st1" d="M174.4,205.6c-1.6,0-2.8,1.3-2.8,2.8s1.3,2.8,2.8,2.8s2.8-1.3,2.8-2.8C177.2,206.9,175.9,205.6,174.4,205.6
		C174.4,205.6,174.4,205.6,174.4,205.6z"/>
	<path class="st1" d="M186.7,205.6c-1.6,0-2.8,1.3-2.8,2.8s1.3,2.8,2.8,2.8s2.8-1.3,2.8-2.8C189.5,206.9,188.2,205.6,186.7,205.6
		C186.7,205.6,186.7,205.6,186.7,205.6z"/>
	<path class="st1" d="M199,205.6c-1.6,0-2.8,1.3-2.8,2.8s1.3,2.8,2.8,2.8s2.8-1.3,2.8-2.8C201.7,206.9,200.5,205.7,199,205.6z"/>
	<path class="st1" d="M211.1,205.6c-1.6,0-2.8,1.3-2.8,2.8s1.3,2.8,2.8,2.8s2.8-1.3,2.8-2.8C214,206.9,212.7,205.6,211.1,205.6
		C211.1,205.6,211.1,205.6,211.1,205.6z"/>
	<path class="st1" d="M223.4,205.6c-1.6,0-2.8,1.3-2.8,2.8s1.3,2.8,2.8,2.8s2.8-1.3,2.8-2.8C226.2,206.9,225,205.7,223.4,205.6z"/>
	<path class="st1" d="M235.6,205.6c-1.6,0-2.8,1.3-2.8,2.8s1.3,2.8,2.8,2.8s2.8-1.3,2.8-2.8c0.1-1.5-1.1-2.8-2.6-2.8
		C235.7,205.6,235.7,205.6,235.6,205.6z"/>
	<path class="st1" d="M100.8,217.9c-1.6,0-2.8,1.3-2.8,2.8c0,0,0,0,0,0c0.1,1.5,1.3,2.8,2.8,2.8c1.6,0,2.8-1.3,2.8-2.8
		S102.4,217.9,100.8,217.9z"/>
	<path class="st1" d="M113.1,217.9c-1.6,0-2.8,1.3-2.8,2.8c0,0,0,0,0,0c0.1,1.5,1.3,2.8,2.8,2.8c1.6,0,2.8-1.3,2.8-2.8
		S114.7,217.9,113.1,217.9z"/>
	<path class="st1" d="M125.4,217.9c-1.6,0-2.8,1.3-2.8,2.8c0,0,0,0,0,0c0.1,1.5,1.3,2.8,2.8,2.8c1.6,0,2.8-1.3,2.8-2.8c0,0,0,0,0,0
		C128.2,219.2,127,218,125.4,217.9z"/>
	<path class="st1" d="M137.6,217.9c-1.6,0-2.8,1.3-2.8,2.8c0,0,0,0,0,0c0.1,1.5,1.3,2.8,2.8,2.8c1.6,0,2.8-1.3,2.8-2.8
		S139.2,217.9,137.6,217.9z"/>
	<path class="st1" d="M149.9,217.9c-1.6,0-2.8,1.3-2.8,2.8c0,0,0,0,0,0c0.1,1.5,1.3,2.8,2.8,2.8c1.6,0,2.8-1.3,2.8-2.8
		S151.5,217.9,149.9,217.9z"/>
	<path class="st1" d="M162.2,217.9c-1.6,0-2.8,1.3-2.8,2.8c0,0,0,0,0,0c0.1,1.5,1.3,2.8,2.8,2.8c1.6,0,2.8-1.3,2.8-2.8c0,0,0,0,0,0
		C165,219.2,163.7,218,162.2,217.9z"/>
	<path class="st1" d="M174.4,217.9c-1.6,0-2.8,1.3-2.8,2.8c0,0,0,0,0,0c0.1,1.5,1.3,2.8,2.8,2.8c1.6,0,2.8-1.3,2.8-2.8
		S175.9,217.9,174.4,217.9z"/>
	<path class="st1" d="M186.7,217.9c-1.6,0-2.8,1.3-2.8,2.8c0,0,0,0,0,0c0.1,1.5,1.3,2.8,2.8,2.8c1.6,0,2.8-1.3,2.8-2.8
		S188.2,217.9,186.7,217.9z"/>
	<path class="st1" d="M199,217.9c-1.6,0-2.8,1.3-2.8,2.8c0,0,0,0,0,0c0.1,1.5,1.3,2.8,2.8,2.8c1.6,0,2.8-1.3,2.8-2.8c0,0,0,0,0,0
		C201.7,219.2,200.5,218,199,217.9z"/>
	<path class="st1" d="M211.1,217.9c-1.6,0-2.8,1.3-2.8,2.8c0.1,1.5,1.3,2.8,2.8,2.8c1.6,0,2.8-1.3,2.8-2.8S212.7,217.9,211.1,217.9
		L211.1,217.9z"/>
	<path class="st1" d="M223.4,217.9c-1.6,0-2.8,1.3-2.8,2.8c0,0,0,0,0,0c0.1,1.5,1.3,2.8,2.8,2.8c1.6,0,2.8-1.3,2.8-2.8c0,0,0,0,0,0
		C226.2,219.2,225,218,223.4,217.9z"/>
	<path class="st1" d="M235.6,217.9c-1.6,0-2.8,1.3-2.8,2.8c0,0,0,0,0,0c0.1,1.5,1.3,2.8,2.8,2.8c1.6,0,2.8-1.3,2.8-2.8
		S237.2,217.9,235.6,217.9z"/>
	<path class="st1" d="M100.8,230.2c-1.6,0-2.8,1.3-2.8,2.8s1.3,2.8,2.8,2.8s2.8-1.3,2.8-2.8c0.1-1.5-1-2.7-2.5-2.8
		C101.1,230.2,100.9,230.2,100.8,230.2z"/>
	<path class="st1" d="M113.1,230.2c-1.6,0-2.8,1.3-2.8,2.8s1.3,2.8,2.8,2.8c1.6,0,2.8-1.3,2.8-2.8c0.1-1.5-1.1-2.8-2.6-2.8
		C113.3,230.2,113.2,230.2,113.1,230.2z"/>
	<path class="st1" d="M125.4,230.2c-1.6,0-2.8,1.3-2.8,2.8s1.3,2.8,2.8,2.8s2.8-1.3,2.8-2.8C128.3,231.5,127,230.2,125.4,230.2
		C125.4,230.2,125.4,230.2,125.4,230.2z"/>
	<path class="st1" d="M137.6,230.2c-1.6,0-2.8,1.3-2.8,2.8s1.3,2.8,2.8,2.8s2.8-1.3,2.8-2.8c0.1-1.5-1-2.7-2.5-2.8
		C137.8,230.2,137.7,230.2,137.6,230.2z"/>
	<path class="st1" d="M149.9,230.2c-1.6,0-2.8,1.3-2.8,2.8s1.3,2.8,2.8,2.8s2.8-1.3,2.8-2.8c0.1-1.5-1.1-2.8-2.6-2.8
		C150,230.2,150,230.2,149.9,230.2z"/>
	<path class="st1" d="M162.2,230.2c-1.6,0-2.8,1.3-2.8,2.8c0,1.6,1.3,2.8,2.8,2.8c1.6,0,2.8-1.3,2.8-2.8
		C165,231.5,163.8,230.2,162.2,230.2C162.2,230.2,162.2,230.2,162.2,230.2z"/>
	<path class="st1" d="M174.4,230.2c-1.6,0-2.8,1.3-2.8,2.8s1.3,2.8,2.8,2.8s2.8-1.3,2.8-2.8c0.1-1.5-1.1-2.8-2.6-2.8
		C174.5,230.2,174.4,230.2,174.4,230.2z"/>
	<path class="st1" d="M186.7,230.2c-1.6,0-2.8,1.3-2.8,2.8s1.3,2.8,2.8,2.8s2.8-1.3,2.8-2.8c0.1-1.5-1.1-2.8-2.6-2.8
		C186.8,230.2,186.7,230.2,186.7,230.2z"/>
	<path class="st1" d="M199,230.2c-1.6,0-2.8,1.3-2.8,2.8s1.3,2.8,2.8,2.8s2.8-1.3,2.8-2.8C201.8,231.5,200.5,230.2,199,230.2
		C199,230.2,199,230.2,199,230.2z"/>
	<path class="st1" d="M211.1,230.2c-1.6,0-2.8,1.3-2.8,2.8s1.3,2.8,2.8,2.8s2.8-1.3,2.8-2.8c0.1-1.5-1.1-2.8-2.6-2.8
		C211.3,230.2,211.2,230.2,211.1,230.2z"/>
	<path class="st1" d="M223.4,230.2c-1.6,0-2.8,1.3-2.8,2.8s1.3,2.8,2.8,2.8s2.8-1.3,2.8-2.8C226.3,231.5,225,230.2,223.4,230.2
		C223.5,230.2,223.4,230.2,223.4,230.2z"/>
	<path class="st1" d="M235.6,230.2c-1.6,0-2.8,1.3-2.8,2.8s1.3,2.8,2.8,2.8c1.6,0,2.8-1.3,2.8-2.8c0.1-1.5-1-2.7-2.5-2.8
		C235.8,230.2,235.7,230.2,235.6,230.2z"/>
	<path class="st1" d="M100.8,242.4c-1.6,0-2.8,1.3-2.8,2.8s1.3,2.8,2.8,2.8s2.8-1.3,2.8-2.8c0.1-1.5-1.1-2.8-2.6-2.8
		C101,242.4,100.9,242.4,100.8,242.4z"/>
	<path class="st1" d="M113.1,242.4c-1.6,0-2.8,1.3-2.8,2.8s1.3,2.8,2.8,2.8s2.8-1.3,2.8-2.8C116,243.7,114.7,242.4,113.1,242.4
		C113.1,242.4,113.1,242.4,113.1,242.4z"/>
	<path class="st1" d="M125.4,242.4c-1.6,0-2.8,1.3-2.8,2.8s1.3,2.8,2.8,2.8s2.8-1.3,2.8-2.8C128.2,243.7,127,242.5,125.4,242.4z"/>
	<path class="st1" d="M137.6,242.4c-1.6,0-2.8,1.3-2.8,2.8s1.3,2.8,2.8,2.8s2.8-1.3,2.8-2.8c0.1-1.5-1.1-2.8-2.6-2.8
		C137.7,242.4,137.7,242.4,137.6,242.4z"/>
	<path class="st1" d="M149.9,242.4c-1.6,0-2.8,1.3-2.8,2.8s1.3,2.8,2.8,2.8s2.8-1.3,2.8-2.8C152.7,243.7,151.5,242.4,149.9,242.4
		C149.9,242.4,149.9,242.4,149.9,242.4z"/>
	<path class="st1" d="M162.2,242.4c-1.6,0-2.8,1.3-2.8,2.8s1.3,2.8,2.8,2.8s2.8-1.3,2.8-2.8C165,243.7,163.7,242.5,162.2,242.4z"/>
	<path class="st1" d="M174.4,242.4c-1.6,0-2.8,1.3-2.8,2.8s1.3,2.8,2.8,2.8s2.8-1.3,2.8-2.8C177.2,243.7,175.9,242.4,174.4,242.4
		C174.4,242.4,174.4,242.4,174.4,242.4z"/>
	<path class="st1" d="M186.7,242.4c-1.6,0-2.8,1.3-2.8,2.8s1.3,2.8,2.8,2.8s2.8-1.3,2.8-2.8C189.5,243.7,188.2,242.4,186.7,242.4
		C186.7,242.4,186.7,242.4,186.7,242.4z"/>
	<path class="st1" d="M199,242.4c-1.6,0-2.8,1.3-2.8,2.8s1.3,2.8,2.8,2.8s2.8-1.3,2.8-2.8C201.7,243.7,200.5,242.5,199,242.4z"/>
	<path class="st1" d="M211.1,242.4c-1.6,0-2.8,1.3-2.8,2.8s1.3,2.8,2.8,2.8s2.8-1.3,2.8-2.8C214,243.7,212.7,242.4,211.1,242.4
		C211.1,242.4,211.1,242.4,211.1,242.4z"/>
	<path class="st1" d="M223.4,242.4c-1.6,0-2.8,1.3-2.8,2.8s1.3,2.8,2.8,2.8s2.8-1.3,2.8-2.8C226.2,243.7,225,242.5,223.4,242.4z"/>
	<path class="st1" d="M235.6,242.4c-1.6,0-2.8,1.3-2.8,2.8s1.3,2.8,2.8,2.8s2.8-1.3,2.8-2.8c0.1-1.5-1.1-2.8-2.6-2.8
		C235.7,242.4,235.7,242.4,235.6,242.4z"/>
	<path class="st1" d="M100.8,254.7c-1.6,0-2.8,1.3-2.8,2.8c0,1.6,1.3,2.8,2.8,2.8s2.8-1.3,2.8-2.8c0.1-1.5-1.1-2.8-2.6-2.8
		C101,254.7,100.9,254.7,100.8,254.7z"/>
	<path class="st1" d="M113.1,254.7c-1.6,0-2.8,1.3-2.8,2.8c0,1.6,1.3,2.8,2.8,2.8s2.8-1.3,2.8-2.8C116,256,114.7,254.7,113.1,254.7
		C113.1,254.7,113.1,254.7,113.1,254.7z"/>
	<path class="st1" d="M125.4,254.7c-1.6,0-2.8,1.3-2.8,2.8c0,1.6,1.3,2.8,2.8,2.8s2.8-1.3,2.8-2.8C128.2,256,127,254.8,125.4,254.7z
		"/>
	<path class="st1" d="M137.6,254.7c-1.6,0-2.8,1.3-2.8,2.8c0,1.6,1.3,2.8,2.8,2.8s2.8-1.3,2.8-2.8c0.1-1.5-1.1-2.8-2.6-2.8
		C137.7,254.7,137.7,254.7,137.6,254.7z"/>
	<path class="st1" d="M149.9,254.7c-1.6,0-2.8,1.3-2.8,2.8c0,1.6,1.3,2.8,2.8,2.8s2.8-1.3,2.8-2.8
		C152.7,256,151.5,254.7,149.9,254.7C149.9,254.7,149.9,254.7,149.9,254.7z"/>
	<path class="st1" d="M162.2,254.7c-1.6,0-2.8,1.3-2.8,2.8c0,1.6,1.3,2.8,2.8,2.8s2.8-1.3,2.8-2.8C165,256,163.7,254.8,162.2,254.7z
		"/>
	<path class="st1" d="M174.4,254.7c-1.6,0-2.8,1.3-2.8,2.8c0,1.6,1.3,2.8,2.8,2.8s2.8-1.3,2.8-2.8
		C177.2,256,175.9,254.7,174.4,254.7C174.4,254.7,174.4,254.7,174.4,254.7z"/>
	<path class="st1" d="M186.7,254.7c-1.6,0-2.8,1.3-2.8,2.8c0,1.6,1.3,2.8,2.8,2.8s2.8-1.3,2.8-2.8
		C189.5,256,188.2,254.7,186.7,254.7C186.7,254.7,186.7,254.7,186.7,254.7z"/>
	<path class="st1" d="M199,254.7c-1.6,0-2.8,1.3-2.8,2.8c0,1.6,1.3,2.8,2.8,2.8s2.8-1.3,2.8-2.8C201.7,256,200.5,254.8,199,254.7z"
		/>
	<path class="st1" d="M211.1,254.7c-1.6,0-2.8,1.3-2.8,2.8c0,1.6,1.3,2.8,2.8,2.8s2.8-1.3,2.8-2.8C214,256,212.7,254.7,211.1,254.7
		C211.1,254.7,211.1,254.7,211.1,254.7z"/>
	<path class="st1" d="M223.4,254.7c-1.6,0-2.8,1.3-2.8,2.8c0,1.6,1.3,2.8,2.8,2.8s2.8-1.3,2.8-2.8C226.2,256,225,254.8,223.4,254.7z
		"/>
	<path class="st1" d="M235.6,254.7c-1.6,0-2.8,1.3-2.8,2.8c0,1.6,1.3,2.8,2.8,2.8s2.8-1.3,2.8-2.8c0.1-1.5-1.1-2.8-2.6-2.8
		C235.7,254.7,235.7,254.7,235.6,254.7z"/>
	<path class="st1" d="M100.8,144.4c-1.5,0.1-2.8,1.3-2.8,2.8c0,1.6,1.3,2.8,2.8,2.8c1.6,0,2.8-1.3,2.8-2.8c0,0,0,0,0,0
		c0.1-1.5-1.1-2.8-2.6-2.8C101,144.4,100.9,144.4,100.8,144.4z"/>
	<path class="st1" d="M113.1,144.4c-1.6,0-2.8,1.3-2.8,2.8s1.3,2.8,2.8,2.8s2.8-1.3,2.8-2.8C116,145.7,114.7,144.4,113.1,144.4
		C113.1,144.4,113.1,144.4,113.1,144.4z"/>
	<path class="st1" d="M125.4,144.4c-1.6,0-2.8,1.3-2.8,2.8s1.3,2.8,2.8,2.8s2.8-1.3,2.8-2.8C128.2,145.7,127,144.5,125.4,144.4z"/>
	<path class="st1" d="M137.6,144.4c-1.6,0-2.8,1.3-2.8,2.8s1.3,2.8,2.8,2.8s2.8-1.3,2.8-2.8c0.1-1.5-1.1-2.8-2.6-2.8
		C137.7,144.4,137.7,144.4,137.6,144.4z"/>
	<path class="st1" d="M149.9,144.4c-1.6,0-2.8,1.3-2.8,2.8s1.3,2.8,2.8,2.8s2.8-1.3,2.8-2.8C152.7,145.7,151.5,144.4,149.9,144.4
		C149.9,144.4,149.9,144.4,149.9,144.4z"/>
	<path class="st1" d="M162.2,144.4c-1.6,0-2.8,1.3-2.8,2.8s1.3,2.8,2.8,2.8s2.8-1.3,2.8-2.8C165,145.7,163.7,144.4,162.2,144.4z"/>
	<path class="st1" d="M174.4,144.4c-1.6,0-2.8,1.3-2.8,2.8s1.3,2.8,2.8,2.8s2.8-1.3,2.8-2.8C177.2,145.7,175.9,144.4,174.4,144.4
		C174.4,144.4,174.4,144.4,174.4,144.4z"/>
	<path class="st1" d="M186.7,144.4c-1.6,0-2.8,1.3-2.8,2.8s1.3,2.8,2.8,2.8s2.8-1.3,2.8-2.8C189.5,145.7,188.2,144.4,186.7,144.4
		C186.7,144.4,186.7,144.4,186.7,144.4z"/>
	<path class="st1" d="M199,144.4c-1.6,0-2.8,1.3-2.8,2.8s1.3,2.8,2.8,2.8s2.8-1.3,2.8-2.8C201.7,145.7,200.5,144.5,199,144.4z"/>
	<path class="st1" d="M211.1,144.4c-1.6,0-2.8,1.3-2.8,2.8s1.3,2.8,2.8,2.8s2.8-1.3,2.8-2.8C214,145.7,212.7,144.4,211.1,144.4
		C211.1,144.4,211.1,144.4,211.1,144.4z"/>
	<path class="st1" d="M223.4,144.4c-1.6,0-2.8,1.3-2.8,2.8s1.3,2.8,2.8,2.8s2.8-1.3,2.8-2.8C226.2,145.7,225,144.5,223.4,144.4z"/>
	<path class="st1" d="M235.6,150.2c1.6,0,2.8-1.3,2.8-2.8s-1.3-2.8-2.8-2.8s-2.8,1.3-2.8,2.8C232.8,148.9,234.1,150.1,235.6,150.2z"
		/>
	<path class="st1" d="M100.8,156.7c-1.6,0-2.8,1.3-2.8,2.8s1.3,2.8,2.8,2.8s2.8-1.3,2.8-2.8c0,0,0,0,0,0c0.1-1.5-1-2.7-2.5-2.8
		C101.1,156.7,100.9,156.7,100.8,156.7z"/>
	<path class="st1" d="M113.1,156.7c-1.6,0-2.8,1.3-2.8,2.8s1.3,2.8,2.8,2.8s2.8-1.3,2.8-2.8c0,0,0,0,0,0c0.1-1.5-1.1-2.8-2.6-2.8
		C113.3,156.7,113.2,156.7,113.1,156.7z"/>
	<path class="st1" d="M125.4,156.7c-1.6,0-2.8,1.3-2.8,2.8s1.3,2.8,2.8,2.8s2.8-1.3,2.8-2.8c0,0,0,0,0,0
		C128.3,158,127,156.7,125.4,156.7C125.4,156.7,125.4,156.7,125.4,156.7z"/>
	<path class="st1" d="M137.6,156.7c-1.6,0-2.8,1.3-2.8,2.8s1.3,2.8,2.8,2.8s2.8-1.3,2.8-2.8c0,0,0,0,0,0c0.1-1.5-1-2.7-2.5-2.8
		C137.8,156.7,137.7,156.7,137.6,156.7z"/>
	<path class="st1" d="M149.9,156.7c-1.6,0-2.8,1.3-2.8,2.8s1.3,2.8,2.8,2.8s2.8-1.3,2.8-2.8c0.1-1.5-1.1-2.8-2.6-2.8
		C150,156.7,150,156.7,149.9,156.7z"/>
	<path class="st1" d="M162.2,156.7c-1.6,0-2.8,1.3-2.8,2.8c0,1.6,1.3,2.8,2.8,2.8s2.8-1.3,2.8-2.8c0,0,0,0,0,0
		C165,158,163.8,156.7,162.2,156.7C162.2,156.7,162.2,156.7,162.2,156.7z"/>
	<path class="st1" d="M174.4,156.7c-1.6,0-2.8,1.3-2.8,2.8s1.3,2.8,2.8,2.8s2.8-1.3,2.8-2.8c0.1-1.5-1.1-2.8-2.6-2.8
		C174.5,156.7,174.4,156.7,174.4,156.7z"/>
	<path class="st1" d="M186.7,156.7c-1.6,0-2.8,1.3-2.8,2.8s1.3,2.8,2.8,2.8s2.8-1.3,2.8-2.8c0.1-1.5-1.1-2.8-2.6-2.8
		C186.8,156.7,186.7,156.7,186.7,156.7z"/>
	<path class="st1" d="M199,156.7c-1.6,0-2.8,1.3-2.8,2.8s1.3,2.8,2.8,2.8s2.8-1.3,2.8-2.8C201.8,158,200.5,156.7,199,156.7
		C199,156.7,199,156.7,199,156.7z"/>
	<path class="st1" d="M211.1,156.7c-1.6,0-2.8,1.3-2.8,2.8s1.3,2.8,2.8,2.8s2.8-1.3,2.8-2.8c0.1-1.5-1.1-2.8-2.6-2.8
		C211.3,156.7,211.2,156.7,211.1,156.7z"/>
	<path class="st1" d="M223.4,156.7c-1.6,0-2.8,1.3-2.8,2.8s1.3,2.8,2.8,2.8s2.8-1.3,2.8-2.8C226.3,158,225,156.7,223.4,156.7
		C223.5,156.7,223.5,156.7,223.4,156.7z"/>
	<path class="st1" d="M235.6,156.7c-1.6,0-2.8,1.3-2.8,2.8s1.3,2.8,2.8,2.8c1.6,0,2.8-1.3,2.8-2.8c0.1-1.5-1-2.7-2.5-2.8
		C235.8,156.7,235.7,156.7,235.6,156.7z"/>
	<path class="st1" d="M100.8,168.9c-1.6,0-2.8,1.3-2.8,2.8s1.3,2.8,2.8,2.8s2.8-1.3,2.8-2.8c0.1-1.5-1.1-2.8-2.6-2.8
		C101,168.9,100.9,168.9,100.8,168.9z"/>
	<path class="st1" d="M113.1,168.9c-1.6,0-2.8,1.3-2.8,2.8s1.3,2.8,2.8,2.8s2.8-1.3,2.8-2.8C116,170.1,114.7,168.9,113.1,168.9
		C113.1,168.9,113.1,168.9,113.1,168.9z"/>
	<path class="st1" d="M125.4,168.9c-1.6,0-2.8,1.3-2.8,2.8s1.3,2.8,2.8,2.8s2.8-1.3,2.8-2.8C128.2,170.1,127,168.9,125.4,168.9z"/>
	<path class="st1" d="M137.6,168.9c-1.6,0-2.8,1.3-2.8,2.8s1.3,2.8,2.8,2.8s2.8-1.3,2.8-2.8c0.1-1.5-1.1-2.8-2.6-2.8
		C137.7,168.9,137.7,168.9,137.6,168.9z"/>
	<path class="st1" d="M149.9,168.9c-1.6,0-2.8,1.3-2.8,2.8s1.3,2.8,2.8,2.8s2.8-1.3,2.8-2.8C152.7,170.1,151.5,168.9,149.9,168.9
		C149.9,168.9,149.9,168.9,149.9,168.9z"/>
	<path class="st1" d="M162.2,168.9c-1.6,0-2.8,1.3-2.8,2.8s1.3,2.8,2.8,2.8s2.8-1.3,2.8-2.8C165,170.1,163.7,168.9,162.2,168.9z"/>
	<path class="st1" d="M174.4,168.9c-1.6,0-2.8,1.3-2.8,2.8s1.3,2.8,2.8,2.8s2.8-1.3,2.8-2.8C177.2,170.1,175.9,168.9,174.4,168.9
		C174.4,168.9,174.4,168.9,174.4,168.9z"/>
	<path class="st1" d="M186.7,168.9c-1.6,0-2.8,1.3-2.8,2.8s1.3,2.8,2.8,2.8s2.8-1.3,2.8-2.8C189.5,170.1,188.2,168.9,186.7,168.9
		C186.7,168.9,186.7,168.9,186.7,168.9z"/>
	<path class="st1" d="M199,168.9c-1.6,0-2.8,1.3-2.8,2.8s1.3,2.8,2.8,2.8s2.8-1.3,2.8-2.8C201.7,170.1,200.5,168.9,199,168.9z"/>
	<path class="st1" d="M211.1,168.9c-1.6,0-2.8,1.3-2.8,2.8s1.3,2.8,2.8,2.8s2.8-1.3,2.8-2.8C214,170.1,212.7,168.9,211.1,168.9
		C211.1,168.9,211.1,168.9,211.1,168.9z"/>
	<path class="st1" d="M223.4,168.9c-1.6,0-2.8,1.3-2.8,2.8s1.3,2.8,2.8,2.8s2.8-1.3,2.8-2.8C226.2,170.1,225,168.9,223.4,168.9z"/>
	<path class="st1" d="M235.6,168.9c-1.6,0-2.8,1.3-2.8,2.8s1.3,2.8,2.8,2.8s2.8-1.3,2.8-2.8c0.1-1.5-1.1-2.8-2.6-2.8
		C235.7,168.9,235.7,168.9,235.6,168.9z"/>
	<path class="st1" d="M100.9,186.8c1.6,0,2.8-1.3,2.7-2.9c0-1.6-1.3-2.8-2.9-2.7c-1.6,0-2.8,1.3-2.7,2.9
		C98.1,185.6,99.3,186.8,100.9,186.8C100.9,186.8,100.9,186.8,100.9,186.8z"/>
	<path class="st1" d="M113.1,181.2c-1.6,0-2.8,1.3-2.8,2.8s1.3,2.8,2.8,2.8s2.8-1.3,2.8-2.8C116,182.4,114.7,181.2,113.1,181.2
		C113.1,181.2,113.1,181.2,113.1,181.2z"/>
	<path class="st1" d="M125.4,181.2c-1.6,0-2.8,1.3-2.8,2.8s1.3,2.8,2.8,2.8s2.8-1.3,2.8-2.8C128.2,182.5,127,181.2,125.4,181.2z"/>
	<path class="st1" d="M137.6,181.2c-1.6,0-2.8,1.3-2.8,2.8s1.3,2.8,2.8,2.8s2.8-1.3,2.8-2.8c0.1-1.5-1.1-2.8-2.6-2.8
		C137.7,181.2,137.7,181.2,137.6,181.2z"/>
	<path class="st1" d="M149.9,181.2c-1.6,0-2.8,1.3-2.8,2.8s1.3,2.8,2.8,2.8s2.8-1.3,2.8-2.8C152.7,182.4,151.5,181.2,149.9,181.2
		C149.9,181.2,149.9,181.2,149.9,181.2z"/>
	<path class="st1" d="M162.2,181.2c-1.6,0-2.8,1.3-2.8,2.8s1.3,2.8,2.8,2.8s2.8-1.3,2.8-2.8C165,182.5,163.7,181.2,162.2,181.2z"/>
	<path class="st1" d="M174.4,181.2c-1.6,0-2.8,1.3-2.8,2.8s1.3,2.8,2.8,2.8s2.8-1.3,2.8-2.8C177.2,182.4,175.9,181.2,174.4,181.2
		C174.4,181.2,174.4,181.2,174.4,181.2z"/>
	<path class="st1" d="M186.7,181.2c-1.6,0-2.8,1.3-2.8,2.8s1.3,2.8,2.8,2.8s2.8-1.3,2.8-2.8C189.5,182.4,188.2,181.2,186.7,181.2
		C186.7,181.2,186.7,181.2,186.7,181.2z"/>
	<path class="st1" d="M199,181.2c-1.6,0-2.8,1.3-2.8,2.8s1.3,2.8,2.8,2.8s2.8-1.3,2.8-2.8C201.7,182.5,200.5,181.2,199,181.2z"/>
	<path class="st1" d="M211.1,181.2c-1.6,0-2.8,1.3-2.8,2.8s1.3,2.8,2.8,2.8s2.8-1.3,2.8-2.8C214,182.4,212.7,181.2,211.1,181.2
		C211.1,181.2,211.1,181.2,211.1,181.2z"/>
	<path class="st1" d="M223.4,181.2c-1.6,0-2.8,1.3-2.8,2.8s1.3,2.8,2.8,2.8s2.8-1.3,2.8-2.8C226.2,182.5,225,181.2,223.4,181.2z"/>
	<path class="st1" d="M235.6,181.2c-1.6,0-2.8,1.3-2.8,2.8s1.3,2.8,2.8,2.8s2.8-1.3,2.8-2.8c0.1-1.5-1.1-2.8-2.6-2.8
		C235.7,181.2,235.7,181.2,235.6,181.2z"/>
	<path class="st1" d="M100.8,193.5c-1.6,0-2.8,1.3-2.8,2.8s1.3,2.8,2.8,2.8s2.8-1.3,2.8-2.8c0.1-1.5-1-2.7-2.5-2.8
		C101.1,193.5,101,193.5,100.8,193.5z"/>
	<path class="st1" d="M113.1,193.5c-1.6,0-2.8,1.3-2.8,2.8s1.3,2.8,2.8,2.8s2.8-1.3,2.8-2.8c0.1-1.5-1.1-2.8-2.6-2.8
		C113.3,193.5,113.2,193.5,113.1,193.5z"/>
	<path class="st1" d="M125.4,193.5c-1.6,0-2.8,1.3-2.8,2.8s1.3,2.8,2.8,2.8s2.8-1.3,2.8-2.8C128.3,194.7,127,193.5,125.4,193.5
		C125.4,193.5,125.4,193.5,125.4,193.5z"/>
	<path class="st1" d="M137.6,193.5c-1.6,0-2.8,1.3-2.8,2.8s1.3,2.8,2.8,2.8s2.8-1.3,2.8-2.8c0.1-1.5-1-2.7-2.5-2.8
		C137.8,193.5,137.7,193.5,137.6,193.5z"/>
	<path class="st1" d="M149.9,193.5c-1.6,0-2.8,1.3-2.8,2.8s1.3,2.8,2.8,2.8s2.8-1.3,2.8-2.8c0.1-1.5-1.1-2.8-2.6-2.8
		C150,193.5,150,193.5,149.9,193.5z"/>
	<path class="st1" d="M162.2,193.5c-1.6,0-2.8,1.3-2.8,2.8s1.3,2.8,2.8,2.8s2.8-1.3,2.8-2.8C165,194.7,163.8,193.5,162.2,193.5
		C162.2,193.5,162.2,193.5,162.2,193.5z"/>
	<path class="st1" d="M174.4,193.5c-1.6,0-2.8,1.3-2.8,2.8s1.3,2.8,2.8,2.8s2.8-1.3,2.8-2.8c0.1-1.5-1.1-2.8-2.6-2.8
		C174.5,193.5,174.4,193.5,174.4,193.5z"/>
	<path class="st1" d="M186.7,193.5c-1.6,0-2.8,1.3-2.8,2.8s1.3,2.8,2.8,2.8s2.8-1.3,2.8-2.8c0.1-1.5-1.1-2.8-2.6-2.8
		C186.8,193.5,186.7,193.5,186.7,193.5z"/>
	<path class="st1" d="M199,193.5c-1.6,0-2.8,1.3-2.8,2.8s1.3,2.8,2.8,2.8s2.8-1.3,2.8-2.8C201.8,194.7,200.5,193.5,199,193.5
		C199,193.5,199,193.5,199,193.5z"/>
	<path class="st1" d="M211.1,193.5c-1.6,0-2.8,1.3-2.8,2.8s1.3,2.8,2.8,2.8s2.8-1.3,2.8-2.8c0.1-1.5-1.1-2.8-2.6-2.8
		C211.3,193.5,211.2,193.5,211.1,193.5z"/>
	<path class="st1" d="M223.4,193.5c-1.6,0-2.8,1.3-2.8,2.8s1.3,2.8,2.8,2.8s2.8-1.3,2.8-2.8C226.3,194.7,225,193.5,223.4,193.5
		C223.5,193.5,223.5,193.5,223.4,193.5z"/>
	<path class="st1" d="M235.6,193.5c-1.6,0-2.8,1.3-2.8,2.8s1.3,2.8,2.8,2.8s2.8-1.3,2.8-2.8c0.1-1.5-1-2.7-2.5-2.8
		C235.8,193.5,235.7,193.5,235.6,193.5z"/>
	<path class="st1" d="M100.8,205.6c-1.6,0.1-2.8,1.4-2.8,3c0.1,1.5,1.3,2.8,2.8,2.8c1.6,0,2.8-1.3,2.8-2.8c0,0,0,0,0,0
		c0.1-1.5-1-2.8-2.6-3C101,205.6,100.9,205.6,100.8,205.6z"/>
	<path class="st1" d="M113.1,205.6c-1.6,0-2.8,1.3-2.8,2.8s1.3,2.8,2.8,2.8s2.8-1.3,2.8-2.8C116,206.9,114.7,205.6,113.1,205.6
		C113.1,205.6,113.1,205.6,113.1,205.6z"/>
	<path class="st1" d="M125.4,205.6c-1.6,0-2.8,1.3-2.8,2.8s1.3,2.8,2.8,2.8s2.8-1.3,2.8-2.8C128.2,206.9,127,205.7,125.4,205.6z"/>
	<path class="st1" d="M137.6,205.6c-1.6,0-2.8,1.3-2.8,2.8s1.3,2.8,2.8,2.8s2.8-1.3,2.8-2.8c0.1-1.5-1.1-2.8-2.6-2.8
		C137.7,205.6,137.7,205.6,137.6,205.6z"/>
	<path class="st1" d="M149.9,205.6c-1.6,0-2.8,1.3-2.8,2.8s1.3,2.8,2.8,2.8s2.8-1.3,2.8-2.8C152.7,206.9,151.5,205.6,149.9,205.6
		C149.9,205.6,149.9,205.6,149.9,205.6z"/>
	<path class="st1" d="M162.2,205.6c-1.6,0-2.8,1.3-2.8,2.8s1.3,2.8,2.8,2.8s2.8-1.3,2.8-2.8C165,206.9,163.7,205.7,162.2,205.6z"/>
	<path class="st1" d="M174.4,205.6c-1.6,0-2.8,1.3-2.8,2.8s1.3,2.8,2.8,2.8s2.8-1.3,2.8-2.8C177.2,206.9,175.9,205.6,174.4,205.6
		C174.4,205.6,174.4,205.6,174.4,205.6z"/>
	<path class="st1" d="M186.7,205.6c-1.6,0-2.8,1.3-2.8,2.8s1.3,2.8,2.8,2.8s2.8-1.3,2.8-2.8C189.5,206.9,188.2,205.6,186.7,205.6
		C186.7,205.6,186.7,205.6,186.7,205.6z"/>
	<path class="st1" d="M199,205.6c-1.6,0-2.8,1.3-2.8,2.8s1.3,2.8,2.8,2.8s2.8-1.3,2.8-2.8C201.7,206.9,200.5,205.7,199,205.6z"/>
	<path class="st1" d="M211.1,205.6c-1.6,0-2.8,1.3-2.8,2.8s1.3,2.8,2.8,2.8s2.8-1.3,2.8-2.8C214,206.9,212.7,205.6,211.1,205.6
		C211.1,205.6,211.1,205.6,211.1,205.6z"/>
	<path class="st1" d="M223.4,205.6c-1.6,0-2.8,1.3-2.8,2.8s1.3,2.8,2.8,2.8s2.8-1.3,2.8-2.8C226.2,206.9,225,205.7,223.4,205.6z"/>
	<path class="st1" d="M235.6,205.6c-1.6,0-2.8,1.3-2.8,2.8s1.3,2.8,2.8,2.8s2.8-1.3,2.8-2.8c0.1-1.5-1.1-2.8-2.6-2.8
		C235.7,205.6,235.7,205.6,235.6,205.6z"/>
	<path class="st1" d="M100.8,217.9c-1.6,0-2.8,1.3-2.8,2.8c0,0,0,0,0,0c0.1,1.5,1.3,2.8,2.8,2.8c1.6,0,2.8-1.3,2.8-2.8
		S102.4,217.9,100.8,217.9z"/>
	<path class="st1" d="M113.1,217.9c-1.6,0-2.8,1.3-2.8,2.8c0,0,0,0,0,0c0.1,1.5,1.3,2.8,2.8,2.8c1.6,0,2.8-1.3,2.8-2.8
		S114.7,217.9,113.1,217.9z"/>
	<path class="st1" d="M125.4,217.9c-1.6,0-2.8,1.3-2.8,2.8c0,0,0,0,0,0c0.1,1.5,1.3,2.8,2.8,2.8c1.6,0,2.8-1.3,2.8-2.8c0,0,0,0,0,0
		C128.2,219.2,127,218,125.4,217.9z"/>
	<path class="st1" d="M137.6,217.9c-1.6,0-2.8,1.3-2.8,2.8c0,0,0,0,0,0c0.1,1.5,1.3,2.8,2.8,2.8c1.6,0,2.8-1.3,2.8-2.8
		S139.2,217.9,137.6,217.9z"/>
	<path class="st1" d="M149.9,217.9c-1.6,0-2.8,1.3-2.8,2.8c0,0,0,0,0,0c0.1,1.5,1.3,2.8,2.8,2.8c1.6,0,2.8-1.3,2.8-2.8
		S151.5,217.9,149.9,217.9z"/>
	<path class="st1" d="M162.2,217.9c-1.6,0-2.8,1.3-2.8,2.8c0,0,0,0,0,0c0.1,1.5,1.3,2.8,2.8,2.8c1.6,0,2.8-1.3,2.8-2.8c0,0,0,0,0,0
		C165,219.2,163.7,218,162.2,217.9z"/>
	<path class="st1" d="M174.4,217.9c-1.6,0-2.8,1.3-2.8,2.8c0,0,0,0,0,0c0.1,1.5,1.3,2.8,2.8,2.8c1.6,0,2.8-1.3,2.8-2.8
		S175.9,217.9,174.4,217.9z"/>
	<path class="st1" d="M186.7,217.9c-1.6,0-2.8,1.3-2.8,2.8c0,0,0,0,0,0c0.1,1.5,1.3,2.8,2.8,2.8c1.6,0,2.8-1.3,2.8-2.8
		S188.2,217.9,186.7,217.9z"/>
	<path class="st1" d="M199,217.9c-1.6,0-2.8,1.3-2.8,2.8c0,0,0,0,0,0c0.1,1.5,1.3,2.8,2.8,2.8c1.6,0,2.8-1.3,2.8-2.8c0,0,0,0,0,0
		C201.7,219.2,200.5,218,199,217.9z"/>
	<path class="st1" d="M211.1,217.9c-1.6,0-2.8,1.3-2.8,2.8c0.1,1.5,1.3,2.8,2.8,2.8c1.6,0,2.8-1.3,2.8-2.8S212.7,217.9,211.1,217.9
		L211.1,217.9z"/>
	<path class="st1" d="M223.4,217.9c-1.6,0-2.8,1.3-2.8,2.8c0,0,0,0,0,0c0.1,1.5,1.3,2.8,2.8,2.8c1.6,0,2.8-1.3,2.8-2.8c0,0,0,0,0,0
		C226.2,219.2,225,218,223.4,217.9z"/>
	<path class="st1" d="M235.6,217.9c-1.6,0-2.8,1.3-2.8,2.8c0,0,0,0,0,0c0.1,1.5,1.3,2.8,2.8,2.8c1.6,0,2.8-1.3,2.8-2.8
		S237.2,217.9,235.6,217.9z"/>
	<path class="st1" d="M100.8,230.2c-1.6,0-2.8,1.3-2.8,2.8s1.3,2.8,2.8,2.8s2.8-1.3,2.8-2.8c0.1-1.5-1-2.7-2.5-2.8
		C101.1,230.2,100.9,230.2,100.8,230.2z"/>
	<path class="st1" d="M113.1,230.2c-1.6,0-2.8,1.3-2.8,2.8s1.3,2.8,2.8,2.8c1.6,0,2.8-1.3,2.8-2.8c0.1-1.5-1.1-2.8-2.6-2.8
		C113.3,230.2,113.2,230.2,113.1,230.2z"/>
	<path class="st1" d="M125.4,230.2c-1.6,0-2.8,1.3-2.8,2.8s1.3,2.8,2.8,2.8s2.8-1.3,2.8-2.8C128.3,231.5,127,230.2,125.4,230.2
		C125.4,230.2,125.4,230.2,125.4,230.2z"/>
	<path class="st1" d="M137.6,230.2c-1.6,0-2.8,1.3-2.8,2.8s1.3,2.8,2.8,2.8s2.8-1.3,2.8-2.8c0.1-1.5-1-2.7-2.5-2.8
		C137.8,230.2,137.7,230.2,137.6,230.2z"/>
	<path class="st1" d="M149.9,230.2c-1.6,0-2.8,1.3-2.8,2.8s1.3,2.8,2.8,2.8s2.8-1.3,2.8-2.8c0.1-1.5-1.1-2.8-2.6-2.8
		C150,230.2,150,230.2,149.9,230.2z"/>
	<path class="st1" d="M162.2,230.2c-1.6,0-2.8,1.3-2.8,2.8c0,1.6,1.3,2.8,2.8,2.8c1.6,0,2.8-1.3,2.8-2.8
		C165,231.5,163.8,230.2,162.2,230.2C162.2,230.2,162.2,230.2,162.2,230.2z"/>
	<path class="st1" d="M174.4,230.2c-1.6,0-2.8,1.3-2.8,2.8s1.3,2.8,2.8,2.8s2.8-1.3,2.8-2.8c0.1-1.5-1.1-2.8-2.6-2.8
		C174.5,230.2,174.4,230.2,174.4,230.2z"/>
	<path class="st1" d="M186.7,230.2c-1.6,0-2.8,1.3-2.8,2.8s1.3,2.8,2.8,2.8s2.8-1.3,2.8-2.8c0.1-1.5-1.1-2.8-2.6-2.8
		C186.8,230.2,186.7,230.2,186.7,230.2z"/>
	<path class="st1" d="M199,230.2c-1.6,0-2.8,1.3-2.8,2.8s1.3,2.8,2.8,2.8s2.8-1.3,2.8-2.8C201.8,231.5,200.5,230.2,199,230.2
		C199,230.2,199,230.2,199,230.2z"/>
	<path class="st1" d="M211.1,230.2c-1.6,0-2.8,1.3-2.8,2.8s1.3,2.8,2.8,2.8s2.8-1.3,2.8-2.8c0.1-1.5-1.1-2.8-2.6-2.8
		C211.3,230.2,211.2,230.2,211.1,230.2z"/>
	<path class="st1" d="M223.4,230.2c-1.6,0-2.8,1.3-2.8,2.8s1.3,2.8,2.8,2.8s2.8-1.3,2.8-2.8C226.3,231.5,225,230.2,223.4,230.2
		C223.5,230.2,223.5,230.2,223.4,230.2z"/>
	<path class="st1" d="M235.6,230.2c-1.6,0-2.8,1.3-2.8,2.8s1.3,2.8,2.8,2.8c1.6,0,2.8-1.3,2.8-2.8c0.1-1.5-1-2.7-2.5-2.8
		C235.8,230.2,235.7,230.2,235.6,230.2z"/>
	<path class="st1" d="M100.8,242.4c-1.6,0-2.8,1.3-2.8,2.8s1.3,2.8,2.8,2.8s2.8-1.3,2.8-2.8c0.1-1.5-1.1-2.8-2.6-2.8
		C101,242.4,100.9,242.4,100.8,242.4z"/>
	<path class="st1" d="M113.1,242.4c-1.6,0-2.8,1.3-2.8,2.8s1.3,2.8,2.8,2.8s2.8-1.3,2.8-2.8C116,243.7,114.7,242.4,113.1,242.4
		C113.1,242.4,113.1,242.4,113.1,242.4z"/>
	<path class="st1" d="M125.4,242.4c-1.6,0-2.8,1.3-2.8,2.8s1.3,2.8,2.8,2.8s2.8-1.3,2.8-2.8C128.2,243.7,127,242.5,125.4,242.4z"/>
	<path class="st1" d="M137.6,242.4c-1.6,0-2.8,1.3-2.8,2.8s1.3,2.8,2.8,2.8s2.8-1.3,2.8-2.8c0.1-1.5-1.1-2.8-2.6-2.8
		C137.7,242.4,137.7,242.4,137.6,242.4z"/>
	<path class="st1" d="M149.9,242.4c-1.6,0-2.8,1.3-2.8,2.8s1.3,2.8,2.8,2.8s2.8-1.3,2.8-2.8C152.7,243.7,151.5,242.4,149.9,242.4
		C149.9,242.4,149.9,242.4,149.9,242.4z"/>
	<path class="st1" d="M162.2,242.4c-1.6,0-2.8,1.3-2.8,2.8s1.3,2.8,2.8,2.8s2.8-1.3,2.8-2.8C165,243.7,163.7,242.5,162.2,242.4z"/>
	<path class="st1" d="M174.4,242.4c-1.6,0-2.8,1.3-2.8,2.8s1.3,2.8,2.8,2.8s2.8-1.3,2.8-2.8C177.2,243.7,175.9,242.4,174.4,242.4
		C174.4,242.4,174.4,242.4,174.4,242.4z"/>
	<path class="st1" d="M186.7,242.4c-1.6,0-2.8,1.3-2.8,2.8s1.3,2.8,2.8,2.8s2.8-1.3,2.8-2.8C189.5,243.7,188.2,242.4,186.7,242.4
		C186.7,242.4,186.7,242.4,186.7,242.4z"/>
	<path class="st1" d="M199,242.4c-1.6,0-2.8,1.3-2.8,2.8s1.3,2.8,2.8,2.8s2.8-1.3,2.8-2.8C201.7,243.7,200.5,242.5,199,242.4z"/>
	<path class="st1" d="M211.1,242.4c-1.6,0-2.8,1.3-2.8,2.8s1.3,2.8,2.8,2.8s2.8-1.3,2.8-2.8C214,243.7,212.7,242.4,211.1,242.4
		C211.1,242.4,211.1,242.4,211.1,242.4z"/>
	<path class="st1" d="M223.4,242.4c-1.6,0-2.8,1.3-2.8,2.8s1.3,2.8,2.8,2.8s2.8-1.3,2.8-2.8C226.2,243.7,225,242.5,223.4,242.4z"/>
	<path class="st1" d="M235.6,242.4c-1.6,0-2.8,1.3-2.8,2.8s1.3,2.8,2.8,2.8s2.8-1.3,2.8-2.8c0.1-1.5-1.1-2.8-2.6-2.8
		C235.7,242.4,235.7,242.4,235.6,242.4z"/>
	<path class="st1" d="M100.8,254.7c-1.6,0-2.8,1.3-2.8,2.8c0,1.6,1.3,2.8,2.8,2.8s2.8-1.3,2.8-2.8c0.1-1.5-1.1-2.8-2.6-2.8
		C101,254.7,100.9,254.7,100.8,254.7z"/>
	<path class="st1" d="M113.1,254.7c-1.6,0-2.8,1.3-2.8,2.8c0,1.6,1.3,2.8,2.8,2.8s2.8-1.3,2.8-2.8C116,256,114.7,254.7,113.1,254.7
		C113.1,254.7,113.1,254.7,113.1,254.7z"/>
	<path class="st1" d="M125.4,254.7c-1.6,0-2.8,1.3-2.8,2.8c0,1.6,1.3,2.8,2.8,2.8s2.8-1.3,2.8-2.8C128.2,256,127,254.8,125.4,254.7z
		"/>
	<path class="st1" d="M137.6,254.7c-1.6,0-2.8,1.3-2.8,2.8c0,1.6,1.3,2.8,2.8,2.8s2.8-1.3,2.8-2.8c0.1-1.5-1.1-2.8-2.6-2.8
		C137.7,254.7,137.7,254.7,137.6,254.7z"/>
	<path class="st1" d="M149.9,254.7c-1.6,0-2.8,1.3-2.8,2.8c0,1.6,1.3,2.8,2.8,2.8s2.8-1.3,2.8-2.8
		C152.7,256,151.5,254.7,149.9,254.7C149.9,254.7,149.9,254.7,149.9,254.7z"/>
	<path class="st1" d="M162.2,254.7c-1.6,0-2.8,1.3-2.8,2.8c0,1.6,1.3,2.8,2.8,2.8s2.8-1.3,2.8-2.8C165,256,163.7,254.8,162.2,254.7z
		"/>
	<path class="st1" d="M174.4,254.7c-1.6,0-2.8,1.3-2.8,2.8c0,1.6,1.3,2.8,2.8,2.8s2.8-1.3,2.8-2.8
		C177.2,256,175.9,254.7,174.4,254.7C174.4,254.7,174.4,254.7,174.4,254.7z"/>
	<path class="st1" d="M186.7,254.7c-1.6,0-2.8,1.3-2.8,2.8c0,1.6,1.3,2.8,2.8,2.8s2.8-1.3,2.8-2.8
		C189.5,256,188.2,254.7,186.7,254.7C186.7,254.7,186.7,254.7,186.7,254.7z"/>
	<path class="st1" d="M199,254.7c-1.6,0-2.8,1.3-2.8,2.8c0,1.6,1.3,2.8,2.8,2.8s2.8-1.3,2.8-2.8C201.7,256,200.5,254.8,199,254.7z"
		/>
	<path class="st1" d="M211.1,254.7c-1.6,0-2.8,1.3-2.8,2.8c0,1.6,1.3,2.8,2.8,2.8s2.8-1.3,2.8-2.8C214,256,212.7,254.7,211.1,254.7
		C211.1,254.7,211.1,254.7,211.1,254.7z"/>
	<path class="st1" d="M223.4,254.7c-1.6,0-2.8,1.3-2.8,2.8c0,1.6,1.3,2.8,2.8,2.8s2.8-1.3,2.8-2.8C226.2,256,225,254.8,223.4,254.7z
		"/>
	<path class="st1" d="M235.6,254.7c-1.6,0-2.8,1.3-2.8,2.8c0,1.6,1.3,2.8,2.8,2.8s2.8-1.3,2.8-2.8c0.1-1.5-1.1-2.8-2.6-2.8
		C235.7,254.7,235.7,254.7,235.6,254.7z"/>
</g>
</svg>
